<svg width="720" height="1280" viewBox="0 0 720 1280" fill="none" xmlns="http://www.w3.org/2000/svg">
<mask id="mask0" mask-type="alpha" maskUnits="userSpaceOnUse" x="0" y="0" width="720" height="1280">
<rect width="720" height="1280" transform="matrix(-1 0 0 1 720 0)" fill="#EDF6FF"/>
</mask>
<g mask="url(#mask0)">
<path d="M720 0H0V1280H720V0Z" fill="#EDF6FF"/>
</g>
<circle cx="385" cy="1177" r="5" fill="#437FC7"/>
<circle cx="405" cy="1177" r="5" fill="#437FC7"/>
<circle cx="425" cy="1177" r="5" fill="#437FC7"/>
<circle cx="445" cy="1177" r="5" fill="#437FC7"/>
<circle cx="385" cy="1197" r="5" fill="#437FC7"/>
<circle cx="405" cy="1197" r="5" fill="#437FC7"/>
<circle cx="425" cy="1197" r="5" fill="#437FC7"/>
<circle cx="445" cy="1197" r="5" fill="#437FC7"/>
<circle cx="385" cy="1217" r="5" fill="#437FC7"/>
<circle cx="405" cy="1217" r="5" fill="#437FC7"/>
<circle cx="425" cy="1217" r="5" fill="#437FC7"/>
<circle cx="445" cy="1217" r="5" fill="#437FC7"/>
<circle cx="385" cy="1237" r="5" fill="#437FC7"/>
<circle cx="405" cy="1237" r="5" fill="#437FC7"/>
<circle cx="425" cy="1237" r="5" fill="#437FC7"/>
<circle cx="445" cy="1237" r="5" fill="#437FC7"/>
<circle cx="385" cy="1257" r="5" fill="#437FC7"/>
<circle cx="405" cy="1257" r="5" fill="#437FC7"/>
<circle cx="425" cy="1257" r="5" fill="#437FC7"/>
<circle cx="445" cy="1257" r="5" fill="#437FC7"/>
<circle cx="19.7143" cy="668.286" r="4.71429" transform="rotate(-90 19.7143 668.286)" fill="#437FC7"/>
<circle cx="19.7143" cy="649.428" r="4.71429" transform="rotate(-90 19.7143 649.428)" fill="#437FC7"/>
<circle cx="19.7143" cy="630.572" r="4.71429" transform="rotate(-90 19.7143 630.572)" fill="#437FC7"/>
<circle cx="19.7143" cy="611.714" r="4.71429" transform="rotate(-90 19.7143 611.714)" fill="#437FC7"/>
<circle cx="38.5715" cy="668.286" r="4.71429" transform="rotate(-90 38.5715 668.286)" fill="#437FC7"/>
<circle cx="38.5715" cy="649.428" r="4.71429" transform="rotate(-90 38.5715 649.428)" fill="#437FC7"/>
<circle cx="38.5715" cy="630.572" r="4.71429" transform="rotate(-90 38.5715 630.572)" fill="#437FC7"/>
<circle cx="38.5715" cy="611.714" r="4.71429" transform="rotate(-90 38.5715 611.714)" fill="#437FC7"/>
</svg>
