<svg width="24" height="24" viewBox="0 0 24 24" fill="none" xmlns="http://www.w3.org/2000/svg">
<g clip-path="url(#clip0)">
<path d="M23.642 5.43024C23.6513 5.46276 23.656 5.49642 23.656 5.53024V10.6792C23.656 10.8142 23.583 10.9392 23.467 11.0052L19.144 13.4952V18.4292C19.1439 18.4953 19.1264 18.5601 19.0934 18.6173C19.0605 18.6745 19.0131 18.7221 18.956 18.7552L9.92999 23.9492C9.90908 23.9607 9.88694 23.9698 9.86399 23.9762C9.85599 23.9782 9.84799 23.9842 9.83999 23.9862C9.77726 24.0042 9.71073 24.0042 9.64799 23.9862C9.63699 23.9842 9.62799 23.9782 9.61799 23.9742C9.59799 23.9662 9.57599 23.9602 9.55599 23.9492L0.532994 18.7552C0.475594 18.7223 0.427893 18.6749 0.394708 18.6176C0.361523 18.5604 0.344029 18.4954 0.343994 18.4292V2.97424C0.343994 2.94124 0.348994 2.90824 0.357994 2.87624C0.360994 2.86424 0.367994 2.85624 0.371994 2.84424C0.37801 2.82429 0.385704 2.80489 0.394994 2.78624C0.398994 2.77324 0.409994 2.76424 0.417994 2.75324L0.450994 2.70824C0.462994 2.69824 0.475994 2.69024 0.487994 2.68124C0.501994 2.66924 0.514994 2.65724 0.528994 2.64724H0.529994L5.04299 0.0502405C5.1 0.0173273 5.16467 0 5.23049 0C5.29632 0 5.36099 0.0173273 5.41799 0.0502405L9.92999 2.64724H9.93199C9.94699 2.65724 9.95899 2.66824 9.97199 2.68024L10.01 2.70724C10.023 2.72124 10.03 2.73724 10.043 2.75224C10.051 2.76324 10.063 2.77324 10.068 2.78524C10.078 2.80524 10.085 2.82324 10.092 2.84324C10.095 2.85424 10.102 2.86424 10.105 2.87524C10.115 2.90624 10.119 2.93924 10.119 2.97324V12.6252L13.879 10.4612V5.52724C13.879 5.49424 13.883 5.46124 13.892 5.42924C13.895 5.41924 13.902 5.40924 13.905 5.39724C13.9117 5.37707 13.9197 5.35736 13.929 5.33824C13.936 5.32624 13.947 5.31824 13.954 5.30524C13.966 5.29024 13.975 5.27524 13.987 5.26224C13.999 5.25024 14.012 5.24224 14.024 5.23424C14.038 5.22424 14.05 5.21124 14.065 5.20224H14.066L18.579 2.60424C18.636 2.57133 18.7007 2.554 18.7665 2.554C18.8323 2.554 18.897 2.57133 18.954 2.60424L23.467 5.20224C23.483 5.21224 23.494 5.22324 23.509 5.23324C23.521 5.24324 23.534 5.25124 23.545 5.26124C23.558 5.27524 23.567 5.29124 23.579 5.30524C23.587 5.31724 23.598 5.32624 23.603 5.33824C23.614 5.35824 23.621 5.37824 23.627 5.39824C23.633 5.40824 23.639 5.41924 23.642 5.43024V5.43024ZM22.902 10.4622V6.17924L21.324 7.08724L19.142 8.34324V12.6262L22.902 10.4622ZM18.392 18.2122V13.9252L16.245 15.1502L10.119 18.6482V22.9732L18.392 18.2122ZM1.09299 3.62424V18.2122L9.36599 22.9732V18.6482L5.04399 16.2032L5.04199 16.2002H5.03999C5.02599 16.1902 5.01499 16.1792 4.99999 16.1692C4.98899 16.1592 4.97599 16.1512 4.96499 16.1422L4.96399 16.1402C4.95099 16.1282 4.94299 16.1152 4.93299 16.1002C4.92299 16.0892 4.91199 16.0782 4.90499 16.0642H4.90299C4.89499 16.0502 4.88999 16.0332 4.88299 16.0172C4.87699 16.0012 4.86899 15.9902 4.86499 15.9742C4.86121 15.9554 4.85854 15.9364 4.85699 15.9172C4.85499 15.9032 4.85099 15.8902 4.85099 15.8762V5.78924L2.67099 4.53224L1.09299 3.62424ZM5.22999 0.81024L1.46999 2.97424L5.22999 5.13824L8.98799 2.97424L5.22999 0.81024ZM7.18599 14.3152L9.36799 13.0592V3.62424L7.78799 4.53424L5.60599 5.78924V15.2242L7.18599 14.3152ZM18.767 3.36524L15.007 5.52824L18.767 7.69124L22.526 5.52724L18.767 3.36524ZM18.391 8.34324L16.21 7.08724L14.63 6.18024V10.4632L16.812 11.7192L18.392 12.6272L18.391 8.34324ZM9.74099 17.9972L15.255 14.8492L18.011 13.2772L14.254 11.1142L9.93099 13.6032L5.98999 15.8732L9.74099 17.9972Z" fill="#437FC7"/>
</g>
<defs>
<clipPath id="clip0">
<rect width="24" height="24" fill="white"/>
</clipPath>
</defs>
</svg>
