<svg width="1080" height="1080" viewBox="0 0 1080 1080" fill="none" xmlns="http://www.w3.org/2000/svg">
<rect width="1080" height="1080" fill="#3C697C"/>
<path d="M462.62 1015.15C462.513 1017.65 461.893 1019.64 460.76 1021.11C459.637 1022.58 458.123 1023.31 456.219 1023.31C455.379 1023.31 454.651 1023.13 454.036 1022.77C453.431 1022.4 452.972 1021.89 452.659 1021.21C451.683 1022.58 450.408 1023.26 448.836 1023.26C447.41 1023.26 446.307 1022.66 445.525 1021.46C444.744 1020.26 444.451 1018.67 444.646 1016.7C444.822 1015.09 445.228 1013.66 445.862 1012.41C446.507 1011.15 447.317 1010.18 448.294 1009.51C449.271 1008.83 450.325 1008.5 451.458 1008.5C452.854 1008.5 454.046 1008.82 455.032 1009.46L455.955 1010.09L455.208 1018.56C455.11 1019.33 455.193 1019.92 455.457 1020.33C455.73 1020.74 456.16 1020.95 456.746 1020.95C457.645 1020.95 458.396 1020.43 459.002 1019.38C459.607 1018.33 459.939 1016.95 459.998 1015.25C460.164 1011.84 459.476 1009.23 457.933 1007.4C456.399 1005.56 454.124 1004.65 451.106 1004.65C449.222 1004.65 447.542 1005.12 446.067 1006.08C444.593 1007.04 443.431 1008.4 442.581 1010.17C441.731 1011.93 441.253 1013.94 441.146 1016.22C440.989 1019.67 441.683 1022.35 443.226 1024.23C444.769 1026.12 447.078 1027.07 450.154 1027.07C450.965 1027.07 451.814 1026.98 452.703 1026.79C453.592 1026.62 454.358 1026.38 455.003 1026.08L455.56 1028.33C454.964 1028.72 454.158 1029.04 453.143 1029.27C452.137 1029.51 451.121 1029.64 450.096 1029.64C447.518 1029.64 445.32 1029.11 443.504 1028.07C441.688 1027.03 440.33 1025.5 439.432 1023.47C438.543 1021.45 438.157 1019.03 438.274 1016.22C438.392 1013.52 439.007 1011.11 440.12 1008.97C441.233 1006.83 442.747 1005.18 444.661 1004.02C446.585 1002.84 448.753 1002.26 451.165 1002.26C453.616 1002.26 455.726 1002.79 457.493 1003.84C459.261 1004.88 460.584 1006.38 461.463 1008.34C462.342 1010.29 462.728 1012.56 462.62 1015.15ZM447.898 1016.7C447.791 1017.99 447.903 1018.97 448.235 1019.65C448.567 1020.31 449.104 1020.64 449.847 1020.64C450.325 1020.64 450.779 1020.43 451.209 1020.01C451.639 1019.59 451.995 1018.99 452.278 1018.2L452.894 1011.27C452.513 1011.14 452.122 1011.08 451.722 1011.08C450.599 1011.08 449.725 1011.55 449.1 1012.51C448.484 1013.47 448.084 1014.87 447.898 1016.7ZM469.959 1023H465.711V1007.15H469.959V1023ZM465.462 1003.05C465.462 1002.41 465.672 1001.89 466.092 1001.48C466.521 1001.07 467.103 1000.87 467.835 1000.87C468.558 1000.87 469.134 1001.07 469.563 1001.48C469.993 1001.89 470.208 1002.41 470.208 1003.05C470.208 1003.69 469.988 1004.22 469.549 1004.63C469.119 1005.04 468.548 1005.25 467.835 1005.25C467.122 1005.25 466.546 1005.04 466.106 1004.63C465.677 1004.22 465.462 1003.69 465.462 1003.05ZM472.801 1014.96C472.801 1012.49 473.353 1010.52 474.456 1009.05C475.569 1007.59 477.088 1006.86 479.012 1006.86C480.555 1006.86 481.829 1007.43 482.835 1008.59V1000.5H487.083V1023H483.26L483.055 1021.32C482 1022.63 480.643 1023.29 478.982 1023.29C477.117 1023.29 475.618 1022.56 474.485 1021.1C473.362 1019.62 472.801 1017.58 472.801 1014.96ZM477.034 1015.27C477.034 1016.75 477.293 1017.89 477.811 1018.68C478.328 1019.47 479.08 1019.87 480.066 1019.87C481.375 1019.87 482.298 1019.31 482.835 1018.21V1011.96C482.308 1010.85 481.395 1010.3 480.096 1010.3C478.055 1010.3 477.034 1011.96 477.034 1015.27ZM494.832 1023H490.584V1007.15H494.832V1023ZM490.335 1003.05C490.335 1002.41 490.545 1001.89 490.965 1001.48C491.395 1001.07 491.976 1000.87 492.708 1000.87C493.431 1000.87 494.007 1001.07 494.437 1001.48C494.866 1001.89 495.081 1002.41 495.081 1003.05C495.081 1003.69 494.861 1004.22 494.422 1004.63C493.992 1005.04 493.421 1005.25 492.708 1005.25C491.995 1005.25 491.419 1005.04 490.979 1004.63C490.55 1004.22 490.335 1003.69 490.335 1003.05ZM497.674 1014.93C497.674 1013.36 497.977 1011.96 498.582 1010.72C499.188 1009.49 500.057 1008.54 501.189 1007.87C502.332 1007.19 503.655 1006.86 505.159 1006.86C507.298 1006.86 509.041 1007.51 510.389 1008.82C511.746 1010.13 512.503 1011.91 512.659 1014.15L512.688 1015.24C512.688 1017.67 512.01 1019.62 510.652 1021.1C509.295 1022.56 507.474 1023.29 505.188 1023.29C502.903 1023.29 501.077 1022.56 499.71 1021.1C498.353 1019.63 497.674 1017.64 497.674 1015.12V1014.93ZM501.907 1015.24C501.907 1016.74 502.19 1017.89 502.757 1018.69C503.323 1019.48 504.134 1019.88 505.188 1019.88C506.214 1019.88 507.015 1019.49 507.591 1018.71C508.167 1017.92 508.455 1016.66 508.455 1014.93C508.455 1013.45 508.167 1012.31 507.591 1011.5C507.015 1010.69 506.204 1010.29 505.159 1010.29C504.124 1010.29 503.323 1010.69 502.757 1011.5C502.19 1012.3 501.907 1013.55 501.907 1015.24ZM520.364 1003.25V1007.15H523.074V1010.26H520.364V1018.17C520.364 1018.75 520.477 1019.17 520.701 1019.43C520.926 1019.68 521.355 1019.81 521.99 1019.81C522.459 1019.81 522.874 1019.77 523.235 1019.7V1022.91C522.405 1023.17 521.551 1023.29 520.672 1023.29C517.703 1023.29 516.189 1021.79 516.131 1018.8V1010.26H513.816V1007.15H516.131V1003.25H520.364ZM532.024 1019.88C532.806 1019.88 533.44 1019.67 533.929 1019.24C534.417 1018.81 534.671 1018.23 534.69 1017.52H538.66C538.65 1018.6 538.357 1019.58 537.781 1020.48C537.205 1021.37 536.414 1022.06 535.408 1022.56C534.412 1023.05 533.309 1023.29 532.098 1023.29C529.832 1023.29 528.045 1022.58 526.736 1021.14C525.428 1019.69 524.773 1017.7 524.773 1015.16V1014.88C524.773 1012.44 525.423 1010.5 526.722 1009.04C528.021 1007.58 529.803 1006.86 532.068 1006.86C534.051 1006.86 535.638 1007.42 536.829 1008.56C538.03 1009.68 538.641 1011.18 538.66 1013.05H534.69C534.671 1012.23 534.417 1011.57 533.929 1011.06C533.44 1010.54 532.796 1010.29 531.995 1010.29C531.009 1010.29 530.262 1010.65 529.754 1011.37C529.256 1012.08 529.007 1013.24 529.007 1014.86V1015.29C529.007 1016.93 529.256 1018.1 529.754 1018.81C530.252 1019.52 531.009 1019.88 532.024 1019.88ZM540.418 1014.93C540.418 1013.36 540.721 1011.96 541.326 1010.72C541.932 1009.49 542.801 1008.54 543.934 1007.87C545.076 1007.19 546.399 1006.86 547.903 1006.86C550.042 1006.86 551.785 1007.51 553.133 1008.82C554.49 1010.13 555.247 1011.91 555.403 1014.15L555.433 1015.24C555.433 1017.67 554.754 1019.62 553.396 1021.1C552.039 1022.56 550.218 1023.29 547.933 1023.29C545.647 1023.29 543.821 1022.56 542.454 1021.1C541.097 1019.63 540.418 1017.64 540.418 1015.12V1014.93ZM544.651 1015.24C544.651 1016.74 544.935 1017.89 545.501 1018.69C546.067 1019.48 546.878 1019.88 547.933 1019.88C548.958 1019.88 549.759 1019.49 550.335 1018.71C550.911 1017.92 551.199 1016.66 551.199 1014.93C551.199 1013.45 550.911 1012.31 550.335 1011.5C549.759 1010.69 548.948 1010.29 547.903 1010.29C546.868 1010.29 546.067 1010.69 545.501 1011.5C544.935 1012.3 544.651 1013.55 544.651 1015.24ZM557.381 1014.96C557.381 1012.49 557.933 1010.52 559.036 1009.05C560.149 1007.59 561.668 1006.86 563.592 1006.86C565.135 1006.86 566.409 1007.43 567.415 1008.59V1000.5H571.663V1023H567.84L567.635 1021.32C566.58 1022.63 565.223 1023.29 563.562 1023.29C561.697 1023.29 560.198 1022.56 559.065 1021.1C557.942 1019.62 557.381 1017.58 557.381 1014.96ZM561.614 1015.27C561.614 1016.75 561.873 1017.89 562.391 1018.68C562.908 1019.47 563.66 1019.87 564.646 1019.87C565.955 1019.87 566.878 1019.31 567.415 1018.21V1011.96C566.888 1010.85 565.975 1010.3 564.676 1010.3C562.635 1010.3 561.614 1011.96 561.614 1015.27ZM579.412 1023H575.164V1007.15H579.412V1023ZM574.915 1003.05C574.915 1002.41 575.125 1001.89 575.545 1001.48C575.975 1001.07 576.556 1000.87 577.288 1000.87C578.011 1000.87 578.587 1001.07 579.017 1001.48C579.446 1001.89 579.661 1002.41 579.661 1003.05C579.661 1003.69 579.441 1004.22 579.002 1004.63C578.572 1005.04 578.001 1005.25 577.288 1005.25C576.575 1005.25 575.999 1005.04 575.56 1004.63C575.13 1004.22 574.915 1003.69 574.915 1003.05ZM586.81 1007.15L586.941 1008.98C588.074 1007.57 589.593 1006.86 591.497 1006.86C593.177 1006.86 594.427 1007.35 595.247 1008.34C596.067 1009.32 596.487 1010.8 596.507 1012.76V1023H592.273V1012.86C592.273 1011.96 592.078 1011.32 591.688 1010.92C591.297 1010.5 590.647 1010.3 589.739 1010.3C588.548 1010.3 587.654 1010.81 587.059 1011.82V1023H582.825V1007.15H586.81ZM599.114 1014.96C599.114 1012.53 599.69 1010.57 600.843 1009.08C602.005 1007.6 603.567 1006.86 605.53 1006.86C607.269 1006.86 608.621 1007.45 609.588 1008.64L609.764 1007.15H613.602V1022.47C613.602 1023.86 613.284 1025.07 612.649 1026.09C612.024 1027.12 611.141 1027.9 609.998 1028.43C608.855 1028.97 607.518 1029.24 605.984 1029.24C604.822 1029.24 603.689 1029.01 602.586 1028.54C601.482 1028.08 600.647 1027.48 600.081 1026.75L601.956 1024.17C603.011 1025.35 604.29 1025.94 605.794 1025.94C606.917 1025.94 607.791 1025.64 608.416 1025.04C609.041 1024.44 609.354 1023.59 609.354 1022.49V1021.64C608.377 1022.74 607.093 1023.29 605.501 1023.29C603.597 1023.29 602.054 1022.55 600.872 1021.07C599.7 1019.57 599.114 1017.59 599.114 1015.13V1014.96ZM603.348 1015.27C603.348 1016.7 603.636 1017.83 604.212 1018.65C604.788 1019.46 605.579 1019.87 606.585 1019.87C607.874 1019.87 608.797 1019.38 609.354 1018.42V1011.75C608.787 1010.78 607.874 1010.3 606.614 1010.3C605.599 1010.3 604.798 1010.71 604.212 1011.54C603.636 1012.38 603.348 1013.62 603.348 1015.27ZM628.602 1026.31H615.257V1023H628.602V1026.31ZM641.99 1026.31H628.646V1023H641.99V1026.31Z" fill="black"/>
<path d="M163.874 186.742H169.138C171.644 186.742 173.501 186.116 174.709 184.862C175.917 183.609 176.521 181.946 176.521 179.872C176.521 177.867 175.917 176.306 174.709 175.189C173.524 174.073 171.883 173.515 169.787 173.515C167.896 173.515 166.312 174.039 165.036 175.087C163.76 176.112 163.122 177.457 163.122 179.12H153.244C153.244 176.522 153.939 174.198 155.329 172.147C156.742 170.074 158.701 168.456 161.208 167.294C163.737 166.132 166.517 165.551 169.548 165.551C174.812 165.551 178.936 166.815 181.921 169.345C184.906 171.851 186.398 175.315 186.398 179.735C186.398 182.014 185.703 184.11 184.313 186.024C182.924 187.938 181.101 189.408 178.845 190.434C181.647 191.436 183.732 192.94 185.1 194.945C186.49 196.951 187.185 199.32 187.185 202.055C187.185 206.475 185.567 210.019 182.331 212.685C179.118 215.351 174.857 216.684 169.548 216.684C164.58 216.684 160.513 215.373 157.346 212.753C154.201 210.132 152.629 206.669 152.629 202.362H162.507C162.507 204.231 163.202 205.757 164.592 206.942C166.005 208.127 167.736 208.72 169.787 208.72C172.134 208.72 173.968 208.104 175.29 206.874C176.634 205.621 177.307 203.969 177.307 201.918C177.307 196.951 174.572 194.467 169.104 194.467H163.874V186.742ZM230.935 197.782H222.766V216H212.512V166.234H231.003C236.882 166.234 241.416 167.545 244.606 170.165C247.797 172.785 249.392 176.488 249.392 181.273C249.392 184.669 248.651 187.506 247.17 189.784C245.712 192.04 243.49 193.84 240.505 195.185L251.271 215.521V216H240.266L230.935 197.782ZM222.766 189.477H231.037C233.612 189.477 235.606 188.827 237.019 187.528C238.431 186.207 239.138 184.395 239.138 182.094C239.138 179.747 238.465 177.901 237.121 176.557C235.799 175.212 233.76 174.54 231.003 174.54H222.766V189.477ZM273.591 216.684C268.168 216.684 263.747 215.02 260.329 211.693C256.934 208.367 255.236 203.935 255.236 198.397V197.44C255.236 193.726 255.954 190.411 257.39 187.494C258.825 184.555 260.853 182.299 263.474 180.727C266.117 179.132 269.125 178.334 272.497 178.334C277.556 178.334 281.532 179.929 284.426 183.119C287.342 186.309 288.801 190.832 288.801 196.688V200.722H265.251C265.57 203.137 266.527 205.074 268.122 206.532C269.74 207.991 271.779 208.72 274.24 208.72C278.046 208.72 281.019 207.341 283.161 204.584L288.015 210.019C286.534 212.115 284.528 213.756 281.999 214.94C279.47 216.103 276.667 216.684 273.591 216.684ZM272.463 186.332C270.503 186.332 268.908 186.993 267.678 188.314C266.47 189.636 265.695 191.527 265.354 193.988H279.094V193.202C279.048 191.015 278.456 189.328 277.316 188.144C276.177 186.936 274.559 186.332 272.463 186.332ZM314.47 205.78C314.47 204.573 313.866 203.627 312.658 202.943C311.473 202.237 309.559 201.61 306.916 201.063C298.12 199.218 293.723 195.481 293.723 189.853C293.723 186.571 295.078 183.837 297.79 181.649C300.524 179.439 304.09 178.334 308.488 178.334C313.182 178.334 316.931 179.439 319.733 181.649C322.559 183.86 323.972 186.731 323.972 190.263H314.094C314.094 188.85 313.638 187.688 312.727 186.776C311.815 185.842 310.391 185.375 308.454 185.375C306.791 185.375 305.503 185.751 304.592 186.503C303.68 187.255 303.225 188.212 303.225 189.374C303.225 190.468 303.737 191.356 304.763 192.04C305.811 192.701 307.565 193.282 310.026 193.783C312.487 194.262 314.561 194.809 316.247 195.424C321.465 197.338 324.074 200.653 324.074 205.37C324.074 208.743 322.627 211.477 319.733 213.573C316.84 215.647 313.103 216.684 308.522 216.684C305.424 216.684 302.666 216.137 300.251 215.043C297.858 213.926 295.979 212.411 294.611 210.497C293.244 208.56 292.561 206.475 292.561 204.242H301.926C302.017 205.997 302.666 207.341 303.874 208.275C305.082 209.21 306.7 209.677 308.728 209.677C310.619 209.677 312.043 209.324 313 208.617C313.98 207.888 314.47 206.942 314.47 205.78ZM328.928 197.167C328.928 193.498 329.634 190.229 331.047 187.357C332.46 184.486 334.488 182.265 337.131 180.692C339.797 179.12 342.884 178.334 346.394 178.334C351.384 178.334 355.451 179.861 358.596 182.914C361.763 185.967 363.529 190.115 363.894 195.355L363.962 197.885C363.962 203.559 362.378 208.116 359.211 211.557C356.044 214.975 351.794 216.684 346.462 216.684C341.13 216.684 336.869 214.975 333.679 211.557C330.511 208.139 328.928 203.49 328.928 197.611V197.167ZM338.806 197.885C338.806 201.394 339.466 204.083 340.788 205.951C342.11 207.797 344.001 208.72 346.462 208.72C348.854 208.72 350.723 207.808 352.067 205.985C353.412 204.14 354.084 201.2 354.084 197.167C354.084 193.726 353.412 191.06 352.067 189.169C350.723 187.278 348.832 186.332 346.394 186.332C343.978 186.332 342.11 187.278 340.788 189.169C339.466 191.037 338.806 193.943 338.806 197.885ZM392.194 212.24C389.756 215.202 386.384 216.684 382.077 216.684C378.112 216.684 375.082 215.544 372.985 213.266C370.912 210.987 369.852 207.649 369.807 203.251V179.018H379.685V202.909C379.685 206.76 381.439 208.686 384.948 208.686C388.298 208.686 390.599 207.523 391.853 205.199V179.018H401.765V216H392.468L392.194 212.24ZM429.997 188.28C428.653 188.098 427.468 188.007 426.442 188.007C422.705 188.007 420.256 189.271 419.094 191.801V216H409.216V179.018H418.547L418.82 183.427C420.803 180.032 423.549 178.334 427.058 178.334C428.151 178.334 429.177 178.482 430.134 178.778L429.997 188.28ZM449.479 208.72C451.302 208.72 452.784 208.218 453.923 207.216C455.062 206.213 455.655 204.88 455.7 203.217H464.963C464.94 205.723 464.257 208.025 462.912 210.121C461.568 212.195 459.722 213.812 457.375 214.975C455.051 216.114 452.476 216.684 449.65 216.684C444.364 216.684 440.194 215.009 437.141 211.659C434.087 208.287 432.561 203.638 432.561 197.714V197.064C432.561 191.368 434.076 186.822 437.106 183.427C440.137 180.032 444.296 178.334 449.582 178.334C454.208 178.334 457.91 179.656 460.69 182.299C463.493 184.919 464.917 188.417 464.963 192.792H455.7C455.655 190.878 455.062 189.328 453.923 188.144C452.784 186.936 451.28 186.332 449.411 186.332C447.11 186.332 445.367 187.175 444.182 188.861C443.02 190.525 442.438 193.236 442.438 196.996V198.021C442.438 201.827 443.02 204.561 444.182 206.225C445.344 207.888 447.11 208.72 449.479 208.72ZM487.624 216.684C482.201 216.684 477.78 215.02 474.362 211.693C470.967 208.367 469.27 203.935 469.27 198.397V197.44C469.27 193.726 469.987 190.411 471.423 187.494C472.858 184.555 474.886 182.299 477.507 180.727C480.15 179.132 483.158 178.334 486.53 178.334C491.589 178.334 495.565 179.929 498.459 183.119C501.376 186.309 502.834 190.832 502.834 196.688V200.722H479.284C479.603 203.137 480.56 205.074 482.155 206.532C483.773 207.991 485.812 208.72 488.273 208.72C492.079 208.72 495.052 207.341 497.194 204.584L502.048 210.019C500.567 212.115 498.562 213.756 496.032 214.94C493.503 216.103 490.7 216.684 487.624 216.684ZM486.496 186.332C484.536 186.332 482.941 186.993 481.711 188.314C480.503 189.636 479.729 191.527 479.387 193.988H493.127V193.202C493.081 191.015 492.489 189.328 491.35 188.144C490.21 186.936 488.592 186.332 486.496 186.332ZM565.93 209.711C564.084 211.921 561.475 213.642 558.103 214.872C554.73 216.08 550.993 216.684 546.892 216.684C542.585 216.684 538.802 215.749 535.544 213.881C532.308 211.99 529.802 209.255 528.024 205.678C526.27 202.1 525.37 197.896 525.324 193.065V189.682C525.324 184.714 526.156 180.419 527.819 176.796C529.506 173.15 531.921 170.37 535.065 168.456C538.233 166.519 541.936 165.551 546.174 165.551C552.076 165.551 556.69 166.964 560.017 169.789C563.343 172.592 565.314 176.682 565.93 182.06H555.949C555.493 179.211 554.479 177.126 552.907 175.805C551.358 174.483 549.216 173.822 546.481 173.822C542.995 173.822 540.34 175.132 538.518 177.753C536.695 180.373 535.772 184.27 535.749 189.442V192.621C535.749 197.839 536.74 201.781 538.723 204.447C540.705 207.113 543.61 208.446 547.438 208.446C551.289 208.446 554.035 207.626 555.676 205.985V197.406H546.345V189.853H565.93V209.711ZM594.401 188.28C593.057 188.098 591.872 188.007 590.847 188.007C587.11 188.007 584.66 189.271 583.498 191.801V216H573.62V179.018H582.951L583.225 183.427C585.207 180.032 587.953 178.334 591.462 178.334C592.556 178.334 593.581 178.482 594.538 178.778L594.401 188.28ZM619.592 216C619.136 215.111 618.806 214.006 618.601 212.685C616.208 215.351 613.098 216.684 609.27 216.684C605.646 216.684 602.639 215.635 600.246 213.539C597.876 211.443 596.691 208.799 596.691 205.609C596.691 201.69 598.138 198.682 601.032 196.586C603.949 194.49 608.153 193.43 613.645 193.407H618.19V191.288C618.19 189.579 617.746 188.212 616.857 187.187C615.992 186.161 614.613 185.648 612.722 185.648C611.058 185.648 609.748 186.047 608.791 186.845C607.857 187.642 607.39 188.736 607.39 190.126H597.512C597.512 187.984 598.173 186.002 599.494 184.179C600.816 182.356 602.684 180.932 605.1 179.906C607.515 178.858 610.227 178.334 613.234 178.334C617.792 178.334 621.403 179.485 624.069 181.786C626.758 184.065 628.103 187.278 628.103 191.425V207.455C628.125 210.964 628.615 213.619 629.572 215.419V216H619.592ZM611.423 209.13C612.881 209.13 614.226 208.811 615.456 208.173C616.687 207.512 617.598 206.635 618.19 205.541V199.184H614.499C609.554 199.184 606.923 200.893 606.604 204.311L606.569 204.892C606.569 206.122 607.002 207.136 607.868 207.934C608.734 208.731 609.919 209.13 611.423 209.13ZM647.517 169.926V179.018H653.84V186.264H647.517V204.721C647.517 206.088 647.779 207.068 648.303 207.66C648.827 208.253 649.829 208.549 651.311 208.549C652.404 208.549 653.373 208.469 654.216 208.31V215.795C652.279 216.387 650.285 216.684 648.234 216.684C641.307 216.684 637.775 213.186 637.639 206.19V186.264H632.238V179.018H637.639V169.926H647.517ZM669.768 216H659.855V179.018H669.768V216ZM659.274 169.447C659.274 167.966 659.764 166.747 660.744 165.79C661.747 164.833 663.103 164.354 664.812 164.354C666.498 164.354 667.842 164.833 668.845 165.79C669.847 166.747 670.349 167.966 670.349 169.447C670.349 170.951 669.836 172.182 668.811 173.139C667.808 174.096 666.475 174.574 664.812 174.574C663.148 174.574 661.804 174.096 660.778 173.139C659.776 172.182 659.274 170.951 659.274 169.447ZM697.966 205.78C697.966 204.573 697.362 203.627 696.154 202.943C694.969 202.237 693.055 201.61 690.412 201.063C681.617 199.218 677.219 195.481 677.219 189.853C677.219 186.571 678.575 183.837 681.286 181.649C684.021 179.439 687.587 178.334 691.984 178.334C696.678 178.334 700.427 179.439 703.229 181.649C706.055 183.86 707.468 186.731 707.468 190.263H697.59C697.59 188.85 697.134 187.688 696.223 186.776C695.311 185.842 693.887 185.375 691.95 185.375C690.287 185.375 688.999 185.751 688.088 186.503C687.176 187.255 686.721 188.212 686.721 189.374C686.721 190.468 687.233 191.356 688.259 192.04C689.307 192.701 691.062 193.282 693.522 193.783C695.983 194.262 698.057 194.809 699.743 195.424C704.961 197.338 707.57 200.653 707.57 205.37C707.57 208.743 706.123 211.477 703.229 213.573C700.336 215.647 696.599 216.684 692.019 216.684C688.92 216.684 686.162 216.137 683.747 215.043C681.354 213.926 679.475 212.411 678.107 210.497C676.74 208.56 676.057 206.475 676.057 204.242H685.422C685.513 205.997 686.162 207.341 687.37 208.275C688.578 209.21 690.196 209.677 692.224 209.677C694.115 209.677 695.539 209.324 696.496 208.617C697.476 207.888 697.966 206.942 697.966 205.78ZM769.709 166.234V199.013C769.709 204.459 768 208.765 764.582 211.933C761.187 215.1 756.538 216.684 750.637 216.684C744.826 216.684 740.212 215.146 736.794 212.069C733.376 208.993 731.633 204.766 731.564 199.389V166.234H741.818V199.081C741.818 202.34 742.593 204.721 744.143 206.225C745.715 207.706 747.88 208.446 750.637 208.446C756.402 208.446 759.33 205.416 759.421 199.354V166.234H769.709ZM786.56 179.018L786.867 183.29C789.51 179.986 793.054 178.334 797.497 178.334C801.416 178.334 804.333 179.485 806.247 181.786C808.161 184.088 809.141 187.528 809.187 192.108V216H799.309V192.348C799.309 190.251 798.853 188.736 797.941 187.802C797.03 186.845 795.515 186.366 793.396 186.366C790.616 186.366 788.531 187.551 787.141 189.921V216H777.263V179.018H786.56ZM828.532 169.926V179.018H834.855V186.264H828.532V204.721C828.532 206.088 828.794 207.068 829.318 207.66C829.842 208.253 830.845 208.549 832.326 208.549C833.42 208.549 834.388 208.469 835.231 208.31V215.795C833.295 216.387 831.301 216.684 829.25 216.684C822.323 216.684 818.791 213.186 818.654 206.19V186.264H813.254V179.018H818.654V169.926H828.532ZM862.507 212.24C860.069 215.202 856.696 216.684 852.39 216.684C848.425 216.684 845.394 215.544 843.298 213.266C841.224 210.987 840.165 207.649 840.119 203.251V179.018H849.997V202.909C849.997 206.76 851.752 208.686 855.261 208.686C858.61 208.686 860.912 207.523 862.165 205.199V179.018H872.077V216H862.78L862.507 212.24ZM892.961 201.166L889.406 204.721V216H879.528V163.5H889.406V192.587L891.32 190.126L900.788 179.018H912.648L899.284 194.433L913.811 216H902.463L892.961 201.166ZM203.625 298V248.234H218.938C223.312 248.234 227.22 249.226 230.661 251.208C234.125 253.168 236.825 255.97 238.762 259.616C240.699 263.239 241.667 267.364 241.667 271.989V274.279C241.667 278.905 240.71 283.018 238.796 286.618C236.905 290.218 234.227 293.01 230.764 294.992C227.3 296.975 223.392 297.977 219.04 298H203.625ZM213.879 256.54V289.763H218.835C222.845 289.763 225.91 288.452 228.029 285.832C230.148 283.212 231.231 279.463 231.276 274.587V271.955C231.276 266.896 230.228 263.068 228.132 260.471C226.035 257.85 222.971 256.54 218.938 256.54H213.879ZM265.524 298.684C260.101 298.684 255.681 297.02 252.263 293.693C248.868 290.367 247.17 285.935 247.17 280.397V279.44C247.17 275.726 247.888 272.411 249.323 269.494C250.759 266.555 252.787 264.299 255.407 262.727C258.05 261.132 261.058 260.334 264.431 260.334C269.489 260.334 273.465 261.929 276.359 265.119C279.276 268.309 280.734 272.832 280.734 278.688V282.722H257.185C257.504 285.137 258.461 287.074 260.056 288.532C261.674 289.991 263.713 290.72 266.174 290.72C269.979 290.72 272.953 289.341 275.095 286.584L279.948 292.019C278.467 294.115 276.462 295.756 273.933 296.94C271.403 298.103 268.601 298.684 265.524 298.684ZM264.396 268.332C262.437 268.332 260.842 268.993 259.611 270.314C258.404 271.636 257.629 273.527 257.287 275.988H271.027V275.202C270.982 273.015 270.389 271.328 269.25 270.144C268.111 268.936 266.493 268.332 264.396 268.332ZM306.403 287.78C306.403 286.573 305.799 285.627 304.592 284.943C303.407 284.237 301.493 283.61 298.85 283.063C290.054 281.218 285.656 277.481 285.656 271.853C285.656 268.571 287.012 265.837 289.724 263.649C292.458 261.439 296.024 260.334 300.422 260.334C305.116 260.334 308.864 261.439 311.667 263.649C314.493 265.86 315.905 268.731 315.905 272.263H306.027C306.027 270.85 305.572 269.688 304.66 268.776C303.749 267.842 302.325 267.375 300.388 267.375C298.724 267.375 297.437 267.751 296.525 268.503C295.614 269.255 295.158 270.212 295.158 271.374C295.158 272.468 295.671 273.356 296.696 274.04C297.744 274.701 299.499 275.282 301.96 275.783C304.421 276.262 306.494 276.809 308.181 277.424C313.399 279.338 316.008 282.653 316.008 287.37C316.008 290.743 314.561 293.477 311.667 295.573C308.773 297.647 305.036 298.684 300.456 298.684C297.357 298.684 294.6 298.137 292.185 297.043C289.792 295.926 287.912 294.411 286.545 292.497C285.178 290.56 284.494 288.475 284.494 286.242H293.859C293.951 287.997 294.6 289.341 295.808 290.275C297.015 291.21 298.633 291.677 300.661 291.677C302.552 291.677 303.977 291.324 304.934 290.617C305.913 289.888 306.403 288.942 306.403 287.78ZM332.824 298H322.912V261.018H332.824V298ZM322.331 251.447C322.331 249.966 322.821 248.747 323.801 247.79C324.803 246.833 326.159 246.354 327.868 246.354C329.554 246.354 330.899 246.833 331.901 247.79C332.904 248.747 333.405 249.966 333.405 251.447C333.405 252.951 332.893 254.182 331.867 255.139C330.865 256.096 329.532 256.574 327.868 256.574C326.205 256.574 324.86 256.096 323.835 255.139C322.832 254.182 322.331 252.951 322.331 251.447ZM339.558 279.235C339.558 273.562 340.902 268.993 343.591 265.529C346.302 262.066 349.948 260.334 354.528 260.334C358.584 260.334 361.74 261.724 363.996 264.504L364.406 261.018H373.361V296.77C373.361 300.005 372.621 302.819 371.14 305.212C369.681 307.604 367.619 309.427 364.953 310.681C362.287 311.934 359.165 312.561 355.588 312.561C352.876 312.561 350.233 312.014 347.658 310.92C345.083 309.849 343.135 308.459 341.813 306.75L346.188 300.734C348.649 303.492 351.634 304.87 355.144 304.87C357.764 304.87 359.803 304.164 361.262 302.751C362.72 301.361 363.449 299.379 363.449 296.804V294.821C361.171 297.396 358.174 298.684 354.46 298.684C350.017 298.684 346.416 296.952 343.659 293.488C340.925 290.002 339.558 285.388 339.558 279.646V279.235ZM349.436 279.953C349.436 283.303 350.108 285.935 351.452 287.849C352.797 289.74 354.642 290.686 356.989 290.686C359.997 290.686 362.15 289.558 363.449 287.302V271.75C362.128 269.494 359.997 268.366 357.058 268.366C354.688 268.366 352.819 269.335 351.452 271.271C350.108 273.208 349.436 276.102 349.436 279.953ZM390.075 261.018L390.383 265.29C393.026 261.986 396.569 260.334 401.013 260.334C404.932 260.334 407.849 261.485 409.763 263.786C411.677 266.088 412.657 269.528 412.702 274.108V298H402.824V274.348C402.824 272.251 402.368 270.736 401.457 269.802C400.546 268.845 399.03 268.366 396.911 268.366C394.131 268.366 392.046 269.551 390.656 271.921V298H380.778V261.018H390.075ZM448.557 289.763H470.329V298H438.303V248.234H448.557V289.763ZM492.614 298.684C487.191 298.684 482.771 297.02 479.353 293.693C475.957 290.367 474.26 285.935 474.26 280.397V279.44C474.26 275.726 474.978 272.411 476.413 269.494C477.849 266.555 479.877 264.299 482.497 262.727C485.14 261.132 488.148 260.334 491.521 260.334C496.579 260.334 500.555 261.929 503.449 265.119C506.366 268.309 507.824 272.832 507.824 278.688V282.722H484.274C484.593 285.137 485.55 287.074 487.146 288.532C488.763 289.991 490.803 290.72 493.264 290.72C497.069 290.72 500.043 289.341 502.185 286.584L507.038 292.019C505.557 294.115 503.552 295.756 501.022 296.94C498.493 298.103 495.69 298.684 492.614 298.684ZM491.486 268.332C489.527 268.332 487.932 268.993 486.701 270.314C485.493 271.636 484.719 273.527 484.377 275.988H498.117V275.202C498.072 273.015 497.479 271.328 496.34 270.144C495.201 268.936 493.583 268.332 491.486 268.332ZM546.789 279.851C546.789 285.775 545.524 290.401 542.995 293.728C540.466 297.032 536.934 298.684 532.399 298.684C528.389 298.684 525.188 297.146 522.795 294.069L522.351 298H513.464V245.5H523.342V264.333C525.62 261.667 528.617 260.334 532.331 260.334C536.843 260.334 540.375 261.997 542.927 265.324C545.502 268.628 546.789 273.288 546.789 279.304V279.851ZM536.911 279.133C536.911 275.396 536.319 272.673 535.134 270.964C533.949 269.232 532.183 268.366 529.836 268.366C526.691 268.366 524.527 269.654 523.342 272.229V286.823C524.549 289.421 526.737 290.72 529.904 290.72C533.094 290.72 535.191 289.147 536.193 286.003C536.672 284.499 536.911 282.209 536.911 279.133ZM563.332 298H553.42V261.018H563.332V298ZM552.839 251.447C552.839 249.966 553.329 248.747 554.309 247.79C555.311 246.833 556.667 246.354 558.376 246.354C560.062 246.354 561.407 246.833 562.409 247.79C563.412 248.747 563.913 249.966 563.913 251.447C563.913 252.951 563.4 254.182 562.375 255.139C561.372 256.096 560.039 256.574 558.376 256.574C556.713 256.574 555.368 256.096 554.343 255.139C553.34 254.182 552.839 252.951 552.839 251.447ZM581.14 265.051C583.76 261.906 587.053 260.334 591.018 260.334C599.038 260.334 603.106 264.994 603.22 274.313V298H593.342V274.587C593.342 272.468 592.886 270.907 591.975 269.904C591.063 268.879 589.548 268.366 587.429 268.366C584.535 268.366 582.438 269.483 581.14 271.716V298H571.262V245.5H581.14V265.051ZM642.15 248.234L654.934 284.328L667.648 248.234H681.115V298H670.827V284.396L671.853 260.915L658.42 298H651.379L637.98 260.949L639.006 284.396V298H628.752V248.234H642.15ZM706.442 298.684C701.019 298.684 696.599 297.02 693.181 293.693C689.785 290.367 688.088 285.935 688.088 280.397V279.44C688.088 275.726 688.806 272.411 690.241 269.494C691.677 266.555 693.705 264.299 696.325 262.727C698.968 261.132 701.976 260.334 705.349 260.334C710.407 260.334 714.383 261.929 717.277 265.119C720.194 268.309 721.652 272.832 721.652 278.688V282.722H698.103C698.422 285.137 699.379 287.074 700.974 288.532C702.591 289.991 704.631 290.72 707.092 290.72C710.897 290.72 713.871 289.341 716.013 286.584L720.866 292.019C719.385 294.115 717.38 295.756 714.851 296.94C712.321 298.103 709.519 298.684 706.442 298.684ZM705.314 268.332C703.355 268.332 701.76 268.993 700.529 270.314C699.322 271.636 698.547 273.527 698.205 275.988H711.945V275.202C711.9 273.015 711.307 271.328 710.168 270.144C709.029 268.936 707.411 268.332 705.314 268.332ZM736.384 261.018L736.691 265.29C739.335 261.986 742.878 260.334 747.321 260.334C751.241 260.334 754.157 261.485 756.071 263.786C757.985 266.088 758.965 269.528 759.011 274.108V298H749.133V274.348C749.133 272.251 748.677 270.736 747.766 269.802C746.854 268.845 745.339 268.366 743.22 268.366C740.44 268.366 738.355 269.551 736.965 271.921V298H727.087V261.018H736.384ZM787.961 298C787.505 297.111 787.175 296.006 786.97 294.685C784.577 297.351 781.467 298.684 777.639 298.684C774.016 298.684 771.008 297.635 768.615 295.539C766.245 293.443 765.061 290.799 765.061 287.609C765.061 283.69 766.507 280.682 769.401 278.586C772.318 276.49 776.522 275.43 782.014 275.407H786.56V273.288C786.56 271.579 786.115 270.212 785.227 269.187C784.361 268.161 782.982 267.648 781.091 267.648C779.427 267.648 778.117 268.047 777.16 268.845C776.226 269.642 775.759 270.736 775.759 272.126H765.881C765.881 269.984 766.542 268.002 767.863 266.179C769.185 264.356 771.053 262.932 773.469 261.906C775.884 260.858 778.596 260.334 781.604 260.334C786.161 260.334 789.772 261.485 792.438 263.786C795.127 266.065 796.472 269.278 796.472 273.425V289.455C796.494 292.964 796.984 295.619 797.941 297.419V298H787.961ZM779.792 291.13C781.25 291.13 782.595 290.811 783.825 290.173C785.056 289.512 785.967 288.635 786.56 287.541V281.184H782.868C777.924 281.184 775.292 282.893 774.973 286.311L774.938 286.892C774.938 288.122 775.371 289.136 776.237 289.934C777.103 290.731 778.288 291.13 779.792 291.13ZM824.841 270.28C823.496 270.098 822.312 270.007 821.286 270.007C817.549 270.007 815.1 271.271 813.938 273.801V298H804.06V261.018H813.391L813.664 265.427C815.646 262.032 818.392 260.334 821.901 260.334C822.995 260.334 824.021 260.482 824.978 260.778L824.841 270.28ZM840.051 298H830.139V261.018H840.051V298ZM829.558 251.447C829.558 249.966 830.048 248.747 831.027 247.79C832.03 246.833 833.386 246.354 835.095 246.354C836.781 246.354 838.125 246.833 839.128 247.79C840.131 248.747 840.632 249.966 840.632 251.447C840.632 252.951 840.119 254.182 839.094 255.139C838.091 256.096 836.758 256.574 835.095 256.574C833.431 256.574 832.087 256.096 831.062 255.139C830.059 254.182 829.558 252.951 829.558 251.447ZM861.652 283.166L858.098 286.721V298H848.22V245.5H858.098V274.587L860.012 272.126L869.479 261.018H881.34L867.976 276.433L882.502 298H871.154L861.652 283.166Z" fill="white"/>
<g clip-path="url(#clip0)">
<path d="M339.569 369.524L274.242 396.242L491.535 927.518L556.862 900.8L339.569 369.524Z" fill="#5C7C89"/>
<path d="M226.326 384.072L161 410.791L369.102 919.596L434.429 892.878L226.326 384.072Z" fill="#5C7C89"/>
<path d="M466.323 352.959L400.997 379.678L618.289 910.954L683.616 884.235L466.323 352.959Z" fill="#5C7C89"/>
<path d="M512.058 942C627.406 942 720.914 926.361 720.914 907.07C720.914 887.779 627.406 872.141 512.058 872.141C396.71 872.141 303.202 887.779 303.202 907.07C303.202 926.361 396.71 942 512.058 942Z" fill="white"/>
<path d="M855.638 800.179L854.065 799.699L266.928 620.609L268.543 619.802L671.6 418.528L671.918 419.186L855.638 800.179ZM270.802 620.284L852.912 797.842L670.938 420.469L270.802 620.284Z" fill="white"/>
<path d="M919.688 720.9H773.489V860.618H919.688V720.9Z" fill="#03989E"/>
<path d="M763.406 350H617.207V489.718H763.406V350Z" fill="#03989E"/>
<path d="M350.734 550.214H204.535V689.932H350.734V550.214Z" fill="#03989E"/>
<path d="M483.61 528.969H479.289L460.924 595.587C460.924 595.587 460.564 639.879 464.885 661.485C464.885 661.485 472.087 652.122 477.129 652.122C482.17 652.122 486.851 604.949 486.851 604.949C486.851 604.949 506.657 537.611 483.61 528.969Z" fill="white"/>
<path d="M578.676 656.442C578.676 656.442 567.153 688.851 577.956 691.012C588.759 693.172 594.52 665.805 591.64 662.204C588.759 658.603 578.676 656.442 578.676 656.442Z" fill="#A0616A"/>
<path d="M463.714 649.747C463.714 649.747 466.953 683.99 477.658 681.387C488.363 678.784 482.03 651.544 477.898 649.496C473.766 647.448 463.714 649.747 463.714 649.747Z" fill="#A0616A"/>
<path d="M491.533 850.175C491.533 850.175 496.574 874.662 487.932 881.143C479.289 887.625 490.812 901.309 490.812 901.309L518.18 872.501C518.18 872.501 506.657 854.496 507.377 843.693L491.533 850.175Z" fill="#A0616A"/>
<path d="M534.744 872.501L531.864 891.946L531.143 905.63L546.988 904.19L549.148 876.102L534.744 872.501Z" fill="#A0616A"/>
<path d="M473.767 653.18C473.767 653.18 464.885 656.443 465.606 665.806C466.326 675.168 468.486 704.696 468.486 704.696C468.486 704.696 462.005 768.073 468.486 789.679C474.968 811.285 487.211 854.497 487.211 854.497C487.211 854.497 505.936 858.098 510.258 844.414C510.258 844.414 509.537 797.601 501.615 787.519C493.693 777.436 499.455 774.555 500.175 773.115C500.895 771.674 503.056 769.514 503.056 767.353C503.056 765.193 503.776 757.27 503.776 754.39C503.776 751.509 503.056 752.229 504.496 747.908C505.936 743.587 507.377 742.146 507.377 741.426C507.377 740.706 519.62 702.536 519.62 702.536L535.464 791.12C535.464 791.12 531.863 878.263 533.304 878.263C534.744 878.263 550.588 884.025 556.35 878.263C556.35 878.263 570.754 803.363 567.873 799.042C564.992 794.721 564.272 794 564.992 789.679C565.713 785.358 567.153 783.197 565.713 781.037C564.272 778.876 562.112 771.674 564.272 769.514C566.433 767.353 567.153 757.27 567.153 757.27C567.153 757.27 579.396 686.691 571.474 676.609C563.552 666.526 473.767 653.18 473.767 653.18Z" fill="#2F2E41"/>
<path d="M498.014 881.864C498.014 881.864 489.372 871.061 486.491 876.102C483.61 881.143 479.289 889.066 479.289 889.066C479.289 889.066 446.881 917.153 464.885 917.873C482.89 918.593 494.413 905.63 494.413 905.63C494.413 905.63 497.294 891.226 505.937 891.226L507.377 894.827L523.221 884.744C523.221 884.744 520.99 865.622 514.543 866.181L498.014 881.864Z" fill="#2F2E41"/>
<path d="M528.263 903.469C528.263 903.469 546.988 896.267 549.148 903.469C551.309 910.671 551.309 914.272 551.309 914.272C551.309 914.272 567.153 940.199 551.309 941.64C535.464 943.08 528.263 932.997 528.263 932.997C528.263 932.997 530.423 920.754 528.263 919.314C526.102 917.873 528.263 903.469 528.263 903.469Z" fill="#2F2E41"/>
<path d="M541.226 505.922C555.147 505.922 566.433 494.637 566.433 480.716C566.433 466.794 555.147 455.509 541.226 455.509C527.305 455.509 516.019 466.794 516.019 480.716C516.019 494.637 527.305 505.922 541.226 505.922Z" fill="#A0616A"/>
<path d="M522.501 486.477L517.46 514.564L552.749 523.206C552.749 523.206 544.467 502.681 553.469 493.679C555.747 491.401 522.501 486.477 522.501 486.477Z" fill="#A0616A"/>
<path d="M519.607 502.599C518.757 502.759 517.969 503.156 517.335 503.744C516.7 504.332 516.244 505.087 516.019 505.922C515.391 507.992 514.417 509.94 513.138 511.684C513.138 511.684 479.289 527.528 479.289 529.689C479.289 531.849 492.973 577.942 492.973 577.942C492.973 577.942 493.693 606.75 487.932 613.231C482.17 619.713 476.409 643.48 477.849 645.64C479.289 647.801 467.766 652.842 472.087 656.443C476.409 660.044 536.905 694.613 572.915 678.769C572.915 678.769 573.635 672.287 572.915 667.966C572.194 663.645 577.236 649.241 575.795 644.2C574.355 639.158 575.795 587.304 575.795 587.304L583.218 525.903C583.359 524.737 583.086 523.558 582.445 522.573C581.804 521.589 580.836 520.861 579.712 520.519C571.411 517.997 552.162 507.668 549.508 509.883C546.073 512.752 524.636 510.798 519.607 502.599Z" fill="white"/>
<path d="M576.516 520.326L576.562 520.307C577.592 519.894 578.73 519.836 579.797 520.141C580.864 520.447 581.798 521.099 582.453 521.995C586.916 528.102 596.308 541.827 597.401 550.574C598.842 562.097 603.163 593.065 602.443 597.387C601.722 601.708 601.002 602.428 602.443 604.589C603.883 606.749 603.163 606.029 602.443 608.189C601.722 610.35 593.08 670.126 593.08 670.126C593.08 670.126 587.319 657.163 576.516 661.484C576.516 661.484 577.956 649.961 576.516 646.36C575.075 642.759 573.635 640.598 575.075 637.717C576.516 634.837 575.075 606.749 574.355 603.868C573.635 600.988 574.355 585.863 574.355 585.863L567.873 556.335L576.516 520.326Z" fill="white"/>
<path d="M536.518 485.007L537.37 479.071C537.568 477.688 538.378 475.869 539.724 476.245C540.868 476.565 543.362 477.545 543.78 477.249C545.344 476.142 547.71 478.079 549.355 477.094C550.044 476.682 550.493 475.799 551.294 475.74C551.831 475.774 552.337 476.004 552.717 476.385C553.785 477.313 555.043 477.996 556.403 478.387C557.085 478.572 557.804 478.572 558.486 478.386C559.168 478.2 559.788 477.835 560.282 477.329C560.456 477.06 560.691 476.834 560.968 476.672C561.293 476.578 561.64 476.594 561.954 476.717L566.156 477.861C566.774 475.62 566.901 473.273 566.528 470.979C566.155 468.685 565.292 466.498 563.996 464.569C562.292 462.255 560.225 460.231 557.876 458.575C555.274 456.596 552.589 454.734 549.82 452.99C546.79 451.075 543.577 449.27 540.033 448.732C536.49 448.194 532.523 449.156 530.294 451.963C529.246 451.204 528.458 450.14 528.038 448.915C527.788 449.143 527.591 449.422 527.461 449.734C527.331 450.046 527.271 450.382 527.285 450.72C527.3 451.058 527.388 451.388 527.544 451.688C527.699 451.987 527.919 452.249 528.187 452.455L524.634 450.186C523.635 451.235 525.587 453.136 524.735 454.308C524.478 454.598 524.148 454.814 523.779 454.933C521.849 455.685 520.081 456.798 518.568 458.212C516.526 460.26 515.417 463.04 514.465 465.772C512.348 471.846 510.809 478.813 513.817 484.499C514.158 485.144 518.66 495.784 519.26 496.199C521.288 497.602 519.968 494.207 521.421 496.199C522.56 497.761 522.347 491.783 524.04 493.095C524.704 493.57 525.491 493.843 526.306 493.879C527.122 493.916 527.93 493.715 528.634 493.302C529.336 492.815 529.11 490.112 528.731 487.629C528.659 487.156 528.703 486.673 528.861 486.221C529.019 485.77 529.285 485.364 529.637 485.039C529.988 484.714 530.413 484.48 530.876 484.358C531.338 484.236 531.824 484.229 532.29 484.339C534.398 484.835 536.482 485.259 536.518 485.007Z" fill="#2F2E41"/>
<path opacity="0.1" d="M571.224 542.372L577.596 614.311C577.596 614.311 564.133 553.975 571.224 542.372Z" fill="black"/>
<path d="M676.778 403.516L714.228 420.08L676.778 435.924V403.516Z" fill="white"/>
<path d="M332.778 675.901H221.868V564.991H332.778V675.901ZM223.408 674.361H331.237V566.532H223.408V674.361Z" fill="#2F2E41"/>
<path d="M311.212 600.07H243.434V606.253H311.212V600.07Z" fill="white"/>
<path d="M311.212 617.355H243.434V623.538H311.212V617.355Z" fill="white"/>
<path d="M311.212 634.64H243.434V640.822H311.212V634.64Z" fill="white"/>
<path d="M900.368 817.375H792.339V764.801H900.368V817.375ZM793.779 815.935H898.928V766.241H793.779V815.935Z" fill="#2F2E41"/>
<path d="M821.866 799.01C826.242 799.01 829.789 795.463 829.789 791.088C829.789 786.713 826.242 783.166 821.866 783.166C817.491 783.166 813.944 786.713 813.944 791.088C813.944 795.463 817.491 799.01 821.866 799.01Z" fill="white"/>
<path d="M846.353 799.01C850.729 799.01 854.275 795.463 854.275 791.088C854.275 786.713 850.729 783.166 846.353 783.166C841.978 783.166 838.431 786.713 838.431 791.088C838.431 795.463 841.978 799.01 846.353 799.01Z" fill="white"/>
<path d="M870.84 799.01C875.215 799.01 878.762 795.463 878.762 791.088C878.762 786.713 875.215 783.166 870.84 783.166C866.465 783.166 862.918 786.713 862.918 791.088C862.918 795.463 866.465 799.01 870.84 799.01Z" fill="white"/>
<path d="M744.321 446.146H636.292V393.572H744.321V446.146ZM637.732 444.706H742.881V395.013H637.732V444.706Z" fill="#2F2E41"/>
</g>
<defs>
<clipPath id="clip0">
<rect width="758.688" height="592" fill="white" transform="translate(161 350)"/>
</clipPath>
</defs>
</svg>
