<svg width="1080" height="1080" viewBox="0 0 1080 1080" fill="none" xmlns="http://www.w3.org/2000/svg">
<rect width="1080" height="1080" fill="#3C697C"/>
<path d="M462.62 1015.15C462.513 1017.65 461.893 1019.64 460.76 1021.11C459.637 1022.58 458.123 1023.31 456.219 1023.31C455.379 1023.31 454.651 1023.13 454.036 1022.77C453.431 1022.4 452.972 1021.89 452.659 1021.21C451.683 1022.58 450.408 1023.26 448.836 1023.26C447.41 1023.26 446.307 1022.66 445.525 1021.46C444.744 1020.26 444.451 1018.67 444.646 1016.7C444.822 1015.09 445.228 1013.66 445.862 1012.41C446.507 1011.15 447.317 1010.18 448.294 1009.51C449.271 1008.83 450.325 1008.5 451.458 1008.5C452.854 1008.5 454.046 1008.82 455.032 1009.46L455.955 1010.09L455.208 1018.56C455.11 1019.33 455.193 1019.92 455.457 1020.33C455.73 1020.74 456.16 1020.95 456.746 1020.95C457.645 1020.95 458.396 1020.43 459.002 1019.38C459.607 1018.33 459.939 1016.95 459.998 1015.25C460.164 1011.84 459.476 1009.23 457.933 1007.4C456.399 1005.56 454.124 1004.65 451.106 1004.65C449.222 1004.65 447.542 1005.12 446.067 1006.08C444.593 1007.04 443.431 1008.4 442.581 1010.17C441.731 1011.93 441.253 1013.94 441.146 1016.22C440.989 1019.67 441.683 1022.35 443.226 1024.23C444.769 1026.12 447.078 1027.07 450.154 1027.07C450.965 1027.07 451.814 1026.98 452.703 1026.79C453.592 1026.62 454.358 1026.38 455.003 1026.08L455.56 1028.33C454.964 1028.72 454.158 1029.04 453.143 1029.27C452.137 1029.51 451.121 1029.64 450.096 1029.64C447.518 1029.64 445.32 1029.11 443.504 1028.07C441.688 1027.03 440.33 1025.5 439.432 1023.47C438.543 1021.45 438.157 1019.03 438.274 1016.22C438.392 1013.52 439.007 1011.11 440.12 1008.97C441.233 1006.83 442.747 1005.18 444.661 1004.02C446.585 1002.84 448.753 1002.26 451.165 1002.26C453.616 1002.26 455.726 1002.79 457.493 1003.84C459.261 1004.88 460.584 1006.38 461.463 1008.34C462.342 1010.29 462.728 1012.56 462.62 1015.15ZM447.898 1016.7C447.791 1017.99 447.903 1018.97 448.235 1019.65C448.567 1020.31 449.104 1020.64 449.847 1020.64C450.325 1020.64 450.779 1020.43 451.209 1020.01C451.639 1019.59 451.995 1018.99 452.278 1018.2L452.894 1011.27C452.513 1011.14 452.122 1011.08 451.722 1011.08C450.599 1011.08 449.725 1011.55 449.1 1012.51C448.484 1013.47 448.084 1014.87 447.898 1016.7ZM469.959 1023H465.711V1007.15H469.959V1023ZM465.462 1003.05C465.462 1002.41 465.672 1001.89 466.092 1001.48C466.521 1001.07 467.103 1000.87 467.835 1000.87C468.558 1000.87 469.134 1001.07 469.563 1001.48C469.993 1001.89 470.208 1002.41 470.208 1003.05C470.208 1003.69 469.988 1004.22 469.549 1004.63C469.119 1005.04 468.548 1005.25 467.835 1005.25C467.122 1005.25 466.546 1005.04 466.106 1004.63C465.677 1004.22 465.462 1003.69 465.462 1003.05ZM472.801 1014.96C472.801 1012.49 473.353 1010.52 474.456 1009.05C475.569 1007.59 477.088 1006.86 479.012 1006.86C480.555 1006.86 481.829 1007.43 482.835 1008.59V1000.5H487.083V1023H483.26L483.055 1021.32C482 1022.63 480.643 1023.29 478.982 1023.29C477.117 1023.29 475.618 1022.56 474.485 1021.1C473.362 1019.62 472.801 1017.58 472.801 1014.96ZM477.034 1015.27C477.034 1016.75 477.293 1017.89 477.811 1018.68C478.328 1019.47 479.08 1019.87 480.066 1019.87C481.375 1019.87 482.298 1019.31 482.835 1018.21V1011.96C482.308 1010.85 481.395 1010.3 480.096 1010.3C478.055 1010.3 477.034 1011.96 477.034 1015.27ZM494.832 1023H490.584V1007.15H494.832V1023ZM490.335 1003.05C490.335 1002.41 490.545 1001.89 490.965 1001.48C491.395 1001.07 491.976 1000.87 492.708 1000.87C493.431 1000.87 494.007 1001.07 494.437 1001.48C494.866 1001.89 495.081 1002.41 495.081 1003.05C495.081 1003.69 494.861 1004.22 494.422 1004.63C493.992 1005.04 493.421 1005.25 492.708 1005.25C491.995 1005.25 491.419 1005.04 490.979 1004.63C490.55 1004.22 490.335 1003.69 490.335 1003.05ZM497.674 1014.93C497.674 1013.36 497.977 1011.96 498.582 1010.72C499.188 1009.49 500.057 1008.54 501.189 1007.87C502.332 1007.19 503.655 1006.86 505.159 1006.86C507.298 1006.86 509.041 1007.51 510.389 1008.82C511.746 1010.13 512.503 1011.91 512.659 1014.15L512.688 1015.24C512.688 1017.67 512.01 1019.62 510.652 1021.1C509.295 1022.56 507.474 1023.29 505.188 1023.29C502.903 1023.29 501.077 1022.56 499.71 1021.1C498.353 1019.63 497.674 1017.64 497.674 1015.12V1014.93ZM501.907 1015.24C501.907 1016.74 502.19 1017.89 502.757 1018.69C503.323 1019.48 504.134 1019.88 505.188 1019.88C506.214 1019.88 507.015 1019.49 507.591 1018.71C508.167 1017.92 508.455 1016.66 508.455 1014.93C508.455 1013.45 508.167 1012.31 507.591 1011.5C507.015 1010.69 506.204 1010.29 505.159 1010.29C504.124 1010.29 503.323 1010.69 502.757 1011.5C502.19 1012.3 501.907 1013.55 501.907 1015.24ZM520.364 1003.25V1007.15H523.074V1010.26H520.364V1018.17C520.364 1018.75 520.477 1019.17 520.701 1019.43C520.926 1019.68 521.355 1019.81 521.99 1019.81C522.459 1019.81 522.874 1019.77 523.235 1019.7V1022.91C522.405 1023.17 521.551 1023.29 520.672 1023.29C517.703 1023.29 516.189 1021.79 516.131 1018.8V1010.26H513.816V1007.15H516.131V1003.25H520.364ZM532.024 1019.88C532.806 1019.88 533.44 1019.67 533.929 1019.24C534.417 1018.81 534.671 1018.23 534.69 1017.52H538.66C538.65 1018.6 538.357 1019.58 537.781 1020.48C537.205 1021.37 536.414 1022.06 535.408 1022.56C534.412 1023.05 533.309 1023.29 532.098 1023.29C529.832 1023.29 528.045 1022.58 526.736 1021.14C525.428 1019.69 524.773 1017.7 524.773 1015.16V1014.88C524.773 1012.44 525.423 1010.5 526.722 1009.04C528.021 1007.58 529.803 1006.86 532.068 1006.86C534.051 1006.86 535.638 1007.42 536.829 1008.56C538.03 1009.68 538.641 1011.18 538.66 1013.05H534.69C534.671 1012.23 534.417 1011.57 533.929 1011.06C533.44 1010.54 532.796 1010.29 531.995 1010.29C531.009 1010.29 530.262 1010.65 529.754 1011.37C529.256 1012.08 529.007 1013.24 529.007 1014.86V1015.29C529.007 1016.93 529.256 1018.1 529.754 1018.81C530.252 1019.52 531.009 1019.88 532.024 1019.88ZM540.418 1014.93C540.418 1013.36 540.721 1011.96 541.326 1010.72C541.932 1009.49 542.801 1008.54 543.934 1007.87C545.076 1007.19 546.399 1006.86 547.903 1006.86C550.042 1006.86 551.785 1007.51 553.133 1008.82C554.49 1010.13 555.247 1011.91 555.403 1014.15L555.433 1015.24C555.433 1017.67 554.754 1019.62 553.396 1021.1C552.039 1022.56 550.218 1023.29 547.933 1023.29C545.647 1023.29 543.821 1022.56 542.454 1021.1C541.097 1019.63 540.418 1017.64 540.418 1015.12V1014.93ZM544.651 1015.24C544.651 1016.74 544.935 1017.89 545.501 1018.69C546.067 1019.48 546.878 1019.88 547.933 1019.88C548.958 1019.88 549.759 1019.49 550.335 1018.71C550.911 1017.92 551.199 1016.66 551.199 1014.93C551.199 1013.45 550.911 1012.31 550.335 1011.5C549.759 1010.69 548.948 1010.29 547.903 1010.29C546.868 1010.29 546.067 1010.69 545.501 1011.5C544.935 1012.3 544.651 1013.55 544.651 1015.24ZM557.381 1014.96C557.381 1012.49 557.933 1010.52 559.036 1009.05C560.149 1007.59 561.668 1006.86 563.592 1006.86C565.135 1006.86 566.409 1007.43 567.415 1008.59V1000.5H571.663V1023H567.84L567.635 1021.32C566.58 1022.63 565.223 1023.29 563.562 1023.29C561.697 1023.29 560.198 1022.56 559.065 1021.1C557.942 1019.62 557.381 1017.58 557.381 1014.96ZM561.614 1015.27C561.614 1016.75 561.873 1017.89 562.391 1018.68C562.908 1019.47 563.66 1019.87 564.646 1019.87C565.955 1019.87 566.878 1019.31 567.415 1018.21V1011.96C566.888 1010.85 565.975 1010.3 564.676 1010.3C562.635 1010.3 561.614 1011.96 561.614 1015.27ZM579.412 1023H575.164V1007.15H579.412V1023ZM574.915 1003.05C574.915 1002.41 575.125 1001.89 575.545 1001.48C575.975 1001.07 576.556 1000.87 577.288 1000.87C578.011 1000.87 578.587 1001.07 579.017 1001.48C579.446 1001.89 579.661 1002.41 579.661 1003.05C579.661 1003.69 579.441 1004.22 579.002 1004.63C578.572 1005.04 578.001 1005.25 577.288 1005.25C576.575 1005.25 575.999 1005.04 575.56 1004.63C575.13 1004.22 574.915 1003.69 574.915 1003.05ZM586.81 1007.15L586.941 1008.98C588.074 1007.57 589.593 1006.86 591.497 1006.86C593.177 1006.86 594.427 1007.35 595.247 1008.34C596.067 1009.32 596.487 1010.8 596.507 1012.76V1023H592.273V1012.86C592.273 1011.96 592.078 1011.32 591.688 1010.92C591.297 1010.5 590.647 1010.3 589.739 1010.3C588.548 1010.3 587.654 1010.81 587.059 1011.82V1023H582.825V1007.15H586.81ZM599.114 1014.96C599.114 1012.53 599.69 1010.57 600.843 1009.08C602.005 1007.6 603.567 1006.86 605.53 1006.86C607.269 1006.86 608.621 1007.45 609.588 1008.64L609.764 1007.15H613.602V1022.47C613.602 1023.86 613.284 1025.07 612.649 1026.09C612.024 1027.12 611.141 1027.9 609.998 1028.43C608.855 1028.97 607.518 1029.24 605.984 1029.24C604.822 1029.24 603.689 1029.01 602.586 1028.54C601.482 1028.08 600.647 1027.48 600.081 1026.75L601.956 1024.17C603.011 1025.35 604.29 1025.94 605.794 1025.94C606.917 1025.94 607.791 1025.64 608.416 1025.04C609.041 1024.44 609.354 1023.59 609.354 1022.49V1021.64C608.377 1022.74 607.093 1023.29 605.501 1023.29C603.597 1023.29 602.054 1022.55 600.872 1021.07C599.7 1019.57 599.114 1017.59 599.114 1015.13V1014.96ZM603.348 1015.27C603.348 1016.7 603.636 1017.83 604.212 1018.65C604.788 1019.46 605.579 1019.87 606.585 1019.87C607.874 1019.87 608.797 1019.38 609.354 1018.42V1011.75C608.787 1010.78 607.874 1010.3 606.614 1010.3C605.599 1010.3 604.798 1010.71 604.212 1011.54C603.636 1012.38 603.348 1013.62 603.348 1015.27ZM628.602 1026.31H615.257V1023H628.602V1026.31ZM641.99 1026.31H628.646V1023H641.99V1026.31Z" fill="black"/>
<path d="M147.181 150.722V158.856H146.224C141.757 158.925 138.157 160.087 135.423 162.343C132.711 164.599 131.082 167.732 130.535 171.742C133.178 169.053 136.517 167.709 140.55 167.709C144.879 167.709 148.32 169.258 150.872 172.357C153.424 175.456 154.7 179.535 154.7 184.594C154.7 187.829 153.994 190.757 152.581 193.378C151.191 195.998 149.209 198.038 146.634 199.496C144.082 200.954 141.188 201.684 137.952 201.684C132.711 201.684 128.473 199.861 125.237 196.215C122.024 192.569 120.418 187.704 120.418 181.62V178.065C120.418 172.665 121.432 167.903 123.46 163.778C125.511 159.631 128.439 156.43 132.244 154.174C136.072 151.895 140.504 150.744 145.54 150.722H147.181ZM137.542 175.639C135.947 175.639 134.5 176.06 133.201 176.903C131.902 177.724 130.945 178.817 130.33 180.185V183.192C130.33 186.496 130.979 189.083 132.278 190.951C133.577 192.797 135.4 193.72 137.747 193.72C139.866 193.72 141.575 192.888 142.874 191.225C144.196 189.538 144.856 187.362 144.856 184.696C144.856 181.985 144.196 179.797 142.874 178.134C141.552 176.47 139.775 175.639 137.542 175.639ZM214.48 159.54H199.236V201H188.982V159.54H173.943V151.234H214.48V159.54ZM238.235 173.28C236.891 173.098 235.706 173.007 234.681 173.007C230.944 173.007 228.494 174.271 227.332 176.801V201H217.454V164.018H226.785L227.059 168.427C229.041 165.032 231.787 163.334 235.296 163.334C236.39 163.334 237.415 163.482 238.372 163.778L238.235 173.28ZM259.358 201.684C253.935 201.684 249.515 200.02 246.097 196.693C242.701 193.367 241.004 188.935 241.004 183.397V182.44C241.004 178.726 241.722 175.411 243.157 172.494C244.593 169.555 246.621 167.299 249.241 165.727C251.884 164.132 254.892 163.334 258.265 163.334C263.323 163.334 267.299 164.929 270.193 168.119C273.11 171.309 274.568 175.832 274.568 181.688V185.722H251.019C251.338 188.137 252.295 190.074 253.89 191.532C255.507 192.991 257.547 193.72 260.008 193.72C263.813 193.72 266.787 192.341 268.929 189.584L273.782 195.019C272.301 197.115 270.296 198.756 267.767 199.94C265.237 201.103 262.435 201.684 259.358 201.684ZM258.23 171.332C256.271 171.332 254.676 171.993 253.445 173.314C252.238 174.636 251.463 176.527 251.121 178.988H264.861V178.202C264.816 176.015 264.223 174.328 263.084 173.144C261.945 171.936 260.327 171.332 258.23 171.332ZM289.3 164.018L289.607 168.29C292.251 164.986 295.794 163.334 300.237 163.334C304.157 163.334 307.073 164.485 308.987 166.786C310.901 169.088 311.881 172.528 311.927 177.108V201H302.049V177.348C302.049 175.251 301.593 173.736 300.682 172.802C299.77 171.845 298.255 171.366 296.136 171.366C293.356 171.366 291.271 172.551 289.881 174.921V201H280.003V164.018H289.3ZM317.908 182.235C317.908 176.47 319.196 171.879 321.771 168.461C324.368 165.043 327.911 163.334 332.4 163.334C336.001 163.334 338.974 164.678 341.321 167.367V148.5H351.233V201H342.312L341.834 197.069C339.373 200.146 336.206 201.684 332.332 201.684C327.98 201.684 324.482 199.975 321.839 196.557C319.218 193.116 317.908 188.342 317.908 182.235ZM327.786 182.953C327.786 186.417 328.39 189.071 329.598 190.917C330.805 192.763 332.56 193.686 334.861 193.686C337.915 193.686 340.068 192.398 341.321 189.823V175.229C340.091 172.654 337.96 171.366 334.93 171.366C330.167 171.366 327.786 175.229 327.786 182.953ZM121.443 283V233.234H136.756C141.131 233.234 145.039 234.226 148.479 236.208C151.943 238.168 154.643 240.97 156.58 244.616C158.517 248.239 159.485 252.364 159.485 256.989V259.279C159.485 263.905 158.528 268.018 156.614 271.618C154.723 275.218 152.046 278.01 148.582 279.992C145.118 281.975 141.211 282.977 136.858 283H121.443ZM131.697 241.54V274.763H136.653C140.664 274.763 143.729 273.452 145.848 270.832C147.967 268.212 149.049 264.463 149.095 259.587V256.955C149.095 251.896 148.047 248.068 145.95 245.471C143.854 242.85 140.789 241.54 136.756 241.54H131.697ZM183.343 283.684C177.92 283.684 173.499 282.02 170.081 278.693C166.686 275.367 164.988 270.935 164.988 265.397V264.44C164.988 260.726 165.706 257.411 167.142 254.494C168.577 251.555 170.605 249.299 173.226 247.727C175.869 246.132 178.877 245.334 182.249 245.334C187.308 245.334 191.284 246.929 194.178 250.119C197.094 253.309 198.553 257.832 198.553 263.688V267.722H175.003C175.322 270.137 176.279 272.074 177.874 273.532C179.492 274.991 181.531 275.72 183.992 275.72C187.798 275.72 190.771 274.341 192.913 271.584L197.767 277.019C196.285 279.115 194.28 280.756 191.751 281.94C189.222 283.103 186.419 283.684 183.343 283.684ZM182.215 253.332C180.255 253.332 178.66 253.993 177.43 255.314C176.222 256.636 175.447 258.527 175.105 260.988H188.846V260.202C188.8 258.015 188.208 256.328 187.068 255.144C185.929 253.936 184.311 253.332 182.215 253.332ZM224.222 272.78C224.222 271.573 223.618 270.627 222.41 269.943C221.225 269.237 219.311 268.61 216.668 268.063C207.872 266.218 203.475 262.481 203.475 256.853C203.475 253.571 204.83 250.837 207.542 248.649C210.276 246.439 213.842 245.334 218.24 245.334C222.934 245.334 226.683 246.439 229.485 248.649C232.311 250.86 233.724 253.731 233.724 257.263H223.846C223.846 255.85 223.39 254.688 222.479 253.776C221.567 252.842 220.143 252.375 218.206 252.375C216.543 252.375 215.255 252.751 214.344 253.503C213.432 254.255 212.977 255.212 212.977 256.374C212.977 257.468 213.489 258.356 214.515 259.04C215.563 259.701 217.317 260.282 219.778 260.783C222.239 261.262 224.313 261.809 225.999 262.424C231.217 264.338 233.826 267.653 233.826 272.37C233.826 275.743 232.379 278.477 229.485 280.573C226.591 282.647 222.854 283.684 218.274 283.684C215.175 283.684 212.418 283.137 210.003 282.043C207.61 280.926 205.73 279.411 204.363 277.497C202.996 275.56 202.312 273.475 202.312 271.242H211.678C211.769 272.997 212.418 274.341 213.626 275.275C214.834 276.21 216.451 276.677 218.479 276.677C220.371 276.677 221.795 276.324 222.752 275.617C223.732 274.888 224.222 273.942 224.222 272.78ZM250.643 283H240.73V246.018H250.643V283ZM240.149 236.447C240.149 234.966 240.639 233.747 241.619 232.79C242.622 231.833 243.978 231.354 245.687 231.354C247.373 231.354 248.717 231.833 249.72 232.79C250.722 233.747 251.224 234.966 251.224 236.447C251.224 237.951 250.711 239.182 249.686 240.139C248.683 241.096 247.35 241.574 245.687 241.574C244.023 241.574 242.679 241.096 241.653 240.139C240.651 239.182 240.149 237.951 240.149 236.447ZM257.376 264.235C257.376 258.562 258.72 253.993 261.409 250.529C264.121 247.066 267.767 245.334 272.347 245.334C276.403 245.334 279.559 246.724 281.814 249.504L282.225 246.018H291.18V281.77C291.18 285.005 290.439 287.819 288.958 290.212C287.5 292.604 285.438 294.427 282.771 295.681C280.105 296.934 276.984 297.561 273.406 297.561C270.695 297.561 268.051 297.014 265.477 295.92C262.902 294.849 260.953 293.459 259.632 291.75L264.007 285.734C266.468 288.492 269.453 289.87 272.962 289.87C275.582 289.87 277.622 289.164 279.08 287.751C280.538 286.361 281.268 284.379 281.268 281.804V279.821C278.989 282.396 275.993 283.684 272.278 283.684C267.835 283.684 264.235 281.952 261.478 278.488C258.743 275.002 257.376 270.388 257.376 264.646V264.235ZM267.254 264.953C267.254 268.303 267.926 270.935 269.271 272.849C270.615 274.74 272.461 275.686 274.808 275.686C277.815 275.686 279.969 274.558 281.268 272.302V256.75C279.946 254.494 277.815 253.366 274.876 253.366C272.506 253.366 270.638 254.335 269.271 256.271C267.926 258.208 267.254 261.102 267.254 264.953ZM307.894 246.018L308.201 250.29C310.844 246.986 314.388 245.334 318.831 245.334C322.75 245.334 325.667 246.485 327.581 248.786C329.495 251.088 330.475 254.528 330.521 259.108V283H320.643V259.348C320.643 257.251 320.187 255.736 319.275 254.802C318.364 253.845 316.849 253.366 314.729 253.366C311.95 253.366 309.865 254.551 308.475 256.921V283H298.597V246.018H307.894ZM394.881 268.645L401.58 233.234H411.8L400.76 283H390.438L382.337 249.709L374.236 283H363.914L352.874 233.234H363.094L369.827 268.576L378.03 233.234H386.712L394.881 268.645ZM432.649 283.684C427.226 283.684 422.806 282.02 419.388 278.693C415.993 275.367 414.295 270.935 414.295 265.397V264.44C414.295 260.726 415.013 257.411 416.448 254.494C417.884 251.555 419.912 249.299 422.532 247.727C425.175 246.132 428.183 245.334 431.556 245.334C436.614 245.334 440.59 246.929 443.484 250.119C446.401 253.309 447.859 257.832 447.859 263.688V267.722H424.31C424.629 270.137 425.586 272.074 427.181 273.532C428.799 274.991 430.838 275.72 433.299 275.72C437.104 275.72 440.078 274.341 442.22 271.584L447.073 277.019C445.592 279.115 443.587 280.756 441.058 281.94C438.528 283.103 435.726 283.684 432.649 283.684ZM431.521 253.332C429.562 253.332 427.967 253.993 426.736 255.314C425.529 256.636 424.754 258.527 424.412 260.988H438.152V260.202C438.107 258.015 437.514 256.328 436.375 255.144C435.236 253.936 433.618 253.332 431.521 253.332ZM486.824 264.851C486.824 270.775 485.56 275.401 483.03 278.728C480.501 282.032 476.969 283.684 472.435 283.684C468.424 283.684 465.223 282.146 462.83 279.069L462.386 283H453.499V230.5H463.377V249.333C465.656 246.667 468.652 245.334 472.366 245.334C476.878 245.334 480.41 246.997 482.962 250.324C485.537 253.628 486.824 258.288 486.824 264.304V264.851ZM476.946 264.133C476.946 260.396 476.354 257.673 475.169 255.964C473.984 254.232 472.218 253.366 469.871 253.366C466.727 253.366 464.562 254.654 463.377 257.229V271.823C464.585 274.421 466.772 275.72 469.939 275.72C473.13 275.72 475.226 274.147 476.229 271.003C476.707 269.499 476.946 267.209 476.946 264.133ZM512.972 272.78C512.972 271.573 512.368 270.627 511.16 269.943C509.975 269.237 508.061 268.61 505.418 268.063C496.622 266.218 492.225 262.481 492.225 256.853C492.225 253.571 493.58 250.837 496.292 248.649C499.026 246.439 502.592 245.334 506.99 245.334C511.684 245.334 515.433 246.439 518.235 248.649C521.061 250.86 522.474 253.731 522.474 257.263H512.596C512.596 255.85 512.14 254.688 511.229 253.776C510.317 252.842 508.893 252.375 506.956 252.375C505.293 252.375 504.005 252.751 503.094 253.503C502.182 254.255 501.727 255.212 501.727 256.374C501.727 257.468 502.239 258.356 503.265 259.04C504.313 259.701 506.067 260.282 508.528 260.783C510.989 261.262 513.063 261.809 514.749 262.424C519.967 264.338 522.576 267.653 522.576 272.37C522.576 275.743 521.129 278.477 518.235 280.573C515.341 282.647 511.604 283.684 507.024 283.684C503.925 283.684 501.168 283.137 498.753 282.043C496.36 280.926 494.48 279.411 493.113 277.497C491.746 275.56 491.062 273.475 491.062 271.242H500.428C500.519 272.997 501.168 274.341 502.376 275.275C503.584 276.21 505.201 276.677 507.229 276.677C509.121 276.677 510.545 276.324 511.502 275.617C512.482 274.888 512.972 273.942 512.972 272.78ZM539.393 283H529.48V246.018H539.393V283ZM528.899 236.447C528.899 234.966 529.389 233.747 530.369 232.79C531.372 231.833 532.728 231.354 534.437 231.354C536.123 231.354 537.467 231.833 538.47 232.79C539.472 233.747 539.974 234.966 539.974 236.447C539.974 237.951 539.461 239.182 538.436 240.139C537.433 241.096 536.1 241.574 534.437 241.574C532.773 241.574 531.429 241.096 530.403 240.139C529.401 239.182 528.899 237.951 528.899 236.447ZM559.388 236.926V246.018H565.711V253.264H559.388V271.721C559.388 273.088 559.65 274.068 560.174 274.66C560.698 275.253 561.701 275.549 563.182 275.549C564.275 275.549 565.244 275.469 566.087 275.31V282.795C564.15 283.387 562.156 283.684 560.105 283.684C553.178 283.684 549.646 280.186 549.51 273.19V253.264H544.109V246.018H549.51V236.926H559.388ZM588.235 283.684C582.812 283.684 578.392 282.02 574.974 278.693C571.578 275.367 569.881 270.935 569.881 265.397V264.44C569.881 260.726 570.599 257.411 572.034 254.494C573.47 251.555 575.498 249.299 578.118 247.727C580.761 246.132 583.769 245.334 587.142 245.334C592.2 245.334 596.176 246.929 599.07 250.119C601.987 253.309 603.445 257.832 603.445 263.688V267.722H579.896C580.215 270.137 581.172 272.074 582.767 273.532C584.384 274.991 586.424 275.72 588.885 275.72C592.69 275.72 595.664 274.341 597.806 271.584L602.659 277.019C601.178 279.115 599.173 280.756 596.644 281.94C594.114 283.103 591.312 283.684 588.235 283.684ZM587.107 253.332C585.148 253.332 583.553 253.993 582.322 255.314C581.115 256.636 580.34 258.527 579.998 260.988H593.738V260.202C593.693 258.015 593.1 256.328 591.961 255.144C590.822 253.936 589.204 253.332 587.107 253.332ZM624.979 264.235C624.979 258.47 626.266 253.879 628.841 250.461C631.438 247.043 634.982 245.334 639.471 245.334C643.071 245.334 646.045 246.678 648.392 249.367V230.5H658.304V283H649.383L648.904 279.069C646.443 282.146 643.276 283.684 639.402 283.684C635.05 283.684 631.552 281.975 628.909 278.557C626.289 275.116 624.979 270.342 624.979 264.235ZM634.856 264.953C634.856 268.417 635.46 271.071 636.668 272.917C637.876 274.763 639.63 275.686 641.932 275.686C644.985 275.686 647.138 274.398 648.392 271.823V257.229C647.161 254.654 645.031 253.366 642 253.366C637.238 253.366 634.856 257.229 634.856 264.953ZM676.385 283H666.473V246.018H676.385V283ZM665.892 236.447C665.892 234.966 666.382 233.747 667.361 232.79C668.364 231.833 669.72 231.354 671.429 231.354C673.115 231.354 674.459 231.833 675.462 232.79C676.465 233.747 676.966 234.966 676.966 236.447C676.966 237.951 676.453 239.182 675.428 240.139C674.425 241.096 673.092 241.574 671.429 241.574C669.765 241.574 668.421 241.096 667.396 240.139C666.393 239.182 665.892 237.951 665.892 236.447ZM735.687 283H701.575V276.232L717.674 259.074C719.884 256.659 721.513 254.551 722.562 252.751C723.632 250.951 724.168 249.242 724.168 247.624C724.168 245.414 723.61 243.682 722.493 242.429C721.377 241.153 719.782 240.515 717.708 240.515C715.475 240.515 713.709 241.289 712.41 242.839C711.134 244.366 710.496 246.382 710.496 248.889H700.584C700.584 245.858 701.302 243.09 702.737 240.583C704.196 238.076 706.246 236.117 708.89 234.704C711.533 233.269 714.529 232.551 717.879 232.551C723.006 232.551 726.982 233.781 729.808 236.242C732.656 238.703 734.08 242.178 734.08 246.667C734.08 249.128 733.442 251.634 732.166 254.187C730.89 256.739 728.702 259.712 725.604 263.107L714.29 275.036H735.687V283ZM775.267 262.424C775.267 269.305 773.842 274.569 770.994 278.215C768.146 281.861 763.976 283.684 758.484 283.684C753.061 283.684 748.914 281.895 746.043 278.317C743.172 274.74 741.702 269.613 741.634 262.937V253.776C741.634 246.826 743.069 241.551 745.94 237.951C748.834 234.351 752.993 232.551 758.416 232.551C763.839 232.551 767.986 234.34 770.857 237.917C773.729 241.472 775.198 246.587 775.267 253.264V262.424ZM765.389 252.375C765.389 248.251 764.819 245.254 763.68 243.386C762.563 241.494 760.809 240.549 758.416 240.549C756.092 240.549 754.371 241.449 753.255 243.249C752.161 245.026 751.58 247.818 751.512 251.623V263.723C751.512 267.779 752.059 270.798 753.152 272.78C754.269 274.74 756.046 275.72 758.484 275.72C760.9 275.72 762.643 274.774 763.714 272.883C764.785 270.992 765.343 268.098 765.389 264.201V252.375ZM816.077 283H781.966V276.232L798.064 259.074C800.275 256.659 801.904 254.551 802.952 252.751C804.023 250.951 804.559 249.242 804.559 247.624C804.559 245.414 804 243.682 802.884 242.429C801.767 241.153 800.172 240.515 798.099 240.515C795.866 240.515 794.1 241.289 792.801 242.839C791.525 244.366 790.887 246.382 790.887 248.889H780.975C780.975 245.858 781.692 243.09 783.128 240.583C784.586 238.076 786.637 236.117 789.28 234.704C791.924 233.269 794.92 232.551 798.27 232.551C803.396 232.551 807.373 233.781 810.198 236.242C813.047 238.703 814.471 242.178 814.471 246.667C814.471 249.128 813.833 251.634 812.557 254.187C811.281 256.739 809.093 259.712 805.994 263.107L794.681 275.036H816.077V283ZM846.155 283H836.277V244.924L824.485 248.581V240.549L845.096 233.166H846.155V283Z" fill="white"/>
<g clip-path="url(#clip0)">
<path d="M790.155 602.52L792.663 582.414C793.554 575.269 797.248 568.77 802.931 564.348C808.613 559.926 815.82 557.943 822.966 558.834C830.111 559.725 836.609 563.419 841.032 569.102C845.454 574.784 847.437 581.991 846.546 589.137L844.037 609.242C843.917 610.201 843.42 611.074 842.657 611.668C841.894 612.261 840.927 612.528 839.967 612.41L793.322 606.59C792.363 606.469 791.49 605.973 790.897 605.21C790.303 604.447 790.036 603.479 790.155 602.52V602.52Z" fill="#2F2E41"/>
<path d="M812.498 608.518C823.491 608.518 832.404 599.606 832.404 588.612C832.404 577.619 823.491 568.707 812.498 568.707C801.504 568.707 792.592 577.619 792.592 588.612C792.592 599.606 801.504 608.518 812.498 608.518Z" fill="#FFB8B8"/>
<path d="M786.089 583.227C786.8 577.578 789.723 572.441 794.217 568.944C798.711 565.447 804.408 563.876 810.059 564.574L814.081 565.076C819.73 565.787 824.867 568.71 828.364 573.204C831.86 577.698 833.432 583.395 832.733 589.046L832.683 589.449L824.185 588.388L822.299 579.911L820.707 587.955L816.315 587.407L815.364 583.129L814.561 587.188L786.038 583.629L786.089 583.227Z" fill="#2F2E41"/>
<path d="M715.14 659.619C715.749 660.814 716.611 661.86 717.668 662.685C718.725 663.51 719.949 664.093 721.256 664.394C722.562 664.694 723.918 664.705 725.229 664.424C726.54 664.144 727.774 663.579 728.843 662.77L746.922 673.361L756.038 663.944L730.296 649.346C728.818 647.64 726.766 646.536 724.529 646.242C722.291 645.948 720.023 646.485 718.155 647.751C716.287 649.017 714.948 650.925 714.392 653.112C713.837 655.3 714.103 657.615 715.14 659.619V659.619Z" fill="#FFB8B8"/>
<path d="M774.396 678.65C761.06 678.65 737.593 672.68 736.293 672.347L735.883 672.242L739.576 653.542L775.42 660.621L794.893 633.2L817.25 630.927L816.626 631.748C816.335 632.131 787.516 670.068 783.031 676.432C781.899 678.038 778.667 678.65 774.396 678.65Z" fill="#03989E"/>
<path d="M777.971 748.836L777.438 748.581C777.324 748.527 765.994 743.016 760.125 732.257C754.284 721.549 781.626 676.124 783.539 672.973L783.567 658.547L793.402 631.992L805.946 624.902L795.176 650.031L777.971 748.836Z" fill="#03989E"/>
<path d="M765.405 903.882L753.417 903.881L747.713 857.64L765.407 857.641L765.405 903.882Z" fill="#FFB8B8"/>
<path d="M768.462 915.502L729.807 915.5V915.011C729.807 911.021 731.392 907.194 734.214 904.373C737.035 901.551 740.862 899.966 744.852 899.966H744.853L768.463 899.967L768.462 915.502Z" fill="#2F2E41"/>
<path d="M894.174 893.375L882.782 897.108L862.963 854.942L879.777 849.433L894.174 893.375Z" fill="#FFB8B8"/>
<path d="M900.698 903.466L863.964 915.502L863.811 915.037C862.569 911.245 862.884 907.115 864.687 903.555C866.489 899.995 869.632 897.297 873.424 896.055L873.425 896.054L895.861 888.704L900.698 903.466Z" fill="#2F2E41"/>
<path d="M870.962 885.815L836.787 828.761L807.937 767.805L781.976 821.649L771.663 891.387L735.495 891.889L735.637 891.324L790.985 671.401L834.333 677.877L832.36 706.49L833.535 708.162C843.328 722.072 853.452 736.455 847.645 751.959L864.107 800.839L900.547 882.229L870.962 885.815Z" fill="#2F2E41"/>
<path d="M792.966 719.065C786.685 719.065 779.519 711.893 783.236 699.648L782.996 699.474L791.925 660.021C784.132 648.876 794.407 639.678 795.37 638.856L800.274 630.028L821.914 616.304L832.863 707.276L832.701 707.431C824.793 714.997 798.235 719.065 792.966 719.065Z" fill="white"/>
<path d="M837.283 739.593C836.423 739.606 835.565 739.515 834.727 739.322C833.885 739.111 832.523 738.04 830.418 731.184C822.048 703.933 812.166 621.936 819.345 613.912L819.509 613.728L831.297 615.693C832.277 614.969 837.419 611.38 842.164 612.004C843.141 612.127 844.082 612.449 844.93 612.95C845.778 613.451 846.513 614.12 847.092 614.917L847.173 615.023L850.929 668.45L864.687 731.323L864.357 731.472C863.556 731.837 846.377 739.593 837.283 739.593Z" fill="#03989E"/>
<path d="M829.355 718.71C830.695 718.666 832.009 718.328 833.204 717.721C834.399 717.113 835.446 716.251 836.272 715.195C837.098 714.14 837.682 712.915 837.984 711.609C838.285 710.303 838.297 708.947 838.018 707.636L855.274 695.75L850.609 683.502L826.475 700.629C824.304 701.244 822.434 702.634 821.219 704.536C820.004 706.438 819.529 708.72 819.884 710.949C820.239 713.178 821.399 715.199 823.145 716.629C824.891 718.06 827.1 718.8 829.355 718.71V718.71Z" fill="#FFB8B8"/>
<path d="M849.58 705.274L834.209 694.002L855.816 664.539L839.235 635.279L846.653 614.066L847.132 614.98C847.356 615.405 869.499 657.588 873.361 664.348C877.38 671.38 850.976 703.58 849.85 704.947L849.58 705.274Z" fill="#03989E"/>
<path d="M503.825 837.884L490.742 832.376L481.768 766.795H362.26L352.532 832.108L340.828 837.96C340.268 838.24 339.819 838.701 339.554 839.268C339.289 839.835 339.222 840.475 339.366 841.084C339.51 841.694 339.856 842.236 340.347 842.625C340.838 843.013 341.445 843.225 342.071 843.225H502.746C503.388 843.225 504.01 843.003 504.507 842.597C505.003 842.19 505.344 841.625 505.471 840.996C505.598 840.367 505.503 839.713 505.203 839.146C504.903 838.579 504.416 838.133 503.825 837.884V837.884Z" fill="#E6E6E6"/>
<path d="M716.199 775.52H129.141C126.06 775.513 123.109 774.285 120.933 772.104C118.758 769.924 117.536 766.97 117.536 763.889V681.106H727.804V763.889C727.804 766.97 726.582 769.924 724.407 772.104C722.231 774.285 719.279 775.513 716.199 775.52V775.52Z" fill="#CCCCCC"/>
<path d="M728.418 720.231H117V366.021C117.004 362.303 118.483 358.74 121.111 356.111C123.74 353.483 127.304 352.004 131.021 352H714.396C718.114 352.004 721.678 353.483 724.306 356.111C726.935 358.74 728.413 362.303 728.418 366.021V720.231Z" fill="#3F3D56"/>
<path d="M691.9 694.523H153.518C150.652 694.52 147.904 693.38 145.878 691.353C143.852 689.327 142.712 686.58 142.708 683.714V388.518C142.712 385.652 143.852 382.904 145.878 380.878C147.904 378.851 150.652 377.711 153.518 377.708H691.9C694.766 377.711 697.513 378.851 699.54 380.878C701.566 382.904 702.706 385.652 702.709 388.518V683.714C702.706 686.58 701.566 689.327 699.54 691.353C697.513 693.38 694.766 694.52 691.9 694.523V694.523Z" fill="white"/>
<path d="M573.699 843.909H271.174C270.864 843.915 270.561 843.819 270.311 843.636C270.061 843.452 269.88 843.191 269.794 842.893C269.741 842.69 269.734 842.478 269.776 842.272C269.817 842.066 269.905 841.873 270.033 841.707C270.161 841.541 270.326 841.406 270.514 841.313C270.702 841.221 270.909 841.172 271.118 841.172H573.586C573.913 841.161 574.234 841.26 574.498 841.455C574.761 841.649 574.95 841.927 575.035 842.242C575.08 842.443 575.079 842.65 575.032 842.85C574.986 843.05 574.895 843.236 574.766 843.396C574.638 843.556 574.476 843.685 574.291 843.774C574.106 843.863 573.904 843.909 573.699 843.909Z" fill="#CCCCCC"/>
<path d="M686.152 425.433H556.163V524.742H686.152V425.433Z" fill="#F2F2F2"/>
<path d="M679.693 430.367H562.622V519.807H679.693V430.367Z" fill="white"/>
<path d="M623.213 496.709C623.229 496.709 623.244 496.709 623.26 496.708C631.185 496.294 638.654 492.876 644.149 487.151C649.644 481.426 652.752 473.822 652.841 465.887C652.93 457.952 649.993 450.281 644.628 444.434C639.263 438.587 631.872 435.003 623.958 434.411C623.86 434.403 623.762 434.416 623.669 434.448C623.577 434.48 623.491 434.531 623.419 434.598C623.347 434.663 623.29 434.743 623.25 434.832C623.211 434.92 623.19 435.016 623.189 435.114L622.507 495.988C622.505 496.178 622.579 496.36 622.711 496.495C622.843 496.63 623.024 496.707 623.213 496.709V496.709Z" fill="#3F3D56"/>
<path d="M598.734 444.477C598.977 444.48 599.209 444.579 599.379 444.752L620.336 466.184C620.42 466.27 620.486 466.371 620.531 466.483C620.576 466.594 620.598 466.714 620.597 466.834L620.27 495.963C620.269 496.088 620.242 496.211 620.191 496.325C620.14 496.44 620.066 496.542 619.974 496.626C619.881 496.711 619.772 496.777 619.653 496.818C619.534 496.859 619.408 496.876 619.283 496.866C613.456 496.43 607.866 494.378 603.141 490.94C598.417 487.502 594.745 482.814 592.538 477.404C590.33 471.994 589.676 466.075 590.647 460.314C591.618 454.552 594.177 449.175 598.036 444.788C598.119 444.693 598.221 444.617 598.336 444.563C598.45 444.51 598.574 444.48 598.7 444.477C598.711 444.477 598.723 444.476 598.734 444.477Z" fill="#E6E6E6"/>
<path d="M620.044 434.162C620.278 434.165 620.502 434.257 620.671 434.418C620.762 434.505 620.833 434.609 620.882 434.724C620.93 434.84 620.954 434.964 620.952 435.089L620.658 461.371C620.656 461.552 620.6 461.728 620.498 461.877C620.396 462.027 620.251 462.142 620.083 462.21C619.915 462.277 619.731 462.293 619.554 462.256C619.377 462.219 619.215 462.13 619.088 462L600.801 443.298C600.714 443.209 600.647 443.104 600.602 442.988C600.557 442.872 600.536 442.748 600.541 442.624C600.546 442.499 600.575 442.377 600.629 442.265C600.682 442.153 600.757 442.052 600.851 441.97C606.169 437.289 612.911 434.538 619.987 434.163C620.006 434.162 620.025 434.162 620.044 434.162Z" fill="#03989E"/>
<path d="M610.623 509.332C610.611 510.441 610.27 511.521 609.643 512.436C609.017 513.351 608.133 514.06 607.104 514.473C606.075 514.885 604.947 514.984 603.862 514.755C602.777 514.527 601.784 513.982 601.009 513.189C600.234 512.396 599.711 511.391 599.507 510.301C599.303 509.211 599.426 508.086 599.862 507.066C600.298 506.046 601.026 505.179 601.955 504.573C602.884 503.968 603.971 503.651 605.08 503.663C606.566 503.682 607.984 504.289 609.024 505.352C610.063 506.414 610.638 507.846 610.623 509.332Z" fill="#03989E"/>
<path d="M626.64 509.512C626.627 510.621 626.286 511.701 625.66 512.616C625.034 513.531 624.15 514.239 623.121 514.652C622.092 515.065 620.964 515.163 619.879 514.935C618.794 514.706 617.801 514.161 617.026 513.369C616.25 512.576 615.728 511.571 615.524 510.481C615.319 509.391 615.443 508.265 615.879 507.246C616.315 506.226 617.043 505.359 617.972 504.753C618.901 504.147 619.988 503.831 621.097 503.843C622.583 503.861 624.001 504.469 625.04 505.531C626.08 506.594 626.655 508.026 626.64 509.512V509.512Z" fill="#3F3D56"/>
<path d="M642.657 509.692C642.644 510.8 642.303 511.88 641.677 512.795C641.051 513.71 640.167 514.419 639.138 514.832C638.109 515.245 636.98 515.343 635.895 515.115C634.81 514.886 633.818 514.341 633.042 513.548C632.267 512.755 631.745 511.751 631.54 510.661C631.336 509.571 631.46 508.445 631.896 507.425C632.331 506.406 633.06 505.538 633.989 504.933C634.917 504.327 636.005 504.01 637.114 504.023C638.6 504.041 640.018 504.648 641.057 505.711C642.096 506.774 642.672 508.205 642.657 509.692Z" fill="#E6E6E6"/>
<path d="M684.784 540.371H554.794V639.68H684.784V540.371Z" fill="#F2F2F2"/>
<path d="M678.325 545.305H561.253V634.745H678.325V545.305Z" fill="white"/>
<path d="M581.117 574.701C583.801 574.701 585.978 572.525 585.978 569.84C585.978 567.156 583.801 564.979 581.117 564.979C578.432 564.979 576.256 567.156 576.256 569.84C576.256 572.525 578.432 574.701 581.117 574.701Z" fill="#3F3D56"/>
<path d="M659.219 566.058C659.652 566.057 660.081 566.142 660.482 566.307C660.882 566.473 661.246 566.715 661.553 567.021C661.86 567.328 662.103 567.691 662.269 568.092C662.435 568.492 662.52 568.921 662.52 569.354C662.52 569.788 662.435 570.217 662.269 570.617C662.103 571.018 661.86 571.381 661.553 571.687C661.246 571.994 660.882 572.236 660.482 572.402C660.081 572.567 659.652 572.652 659.219 572.651H608.095C607.22 572.651 606.382 572.304 605.764 571.685C605.145 571.067 604.798 570.229 604.798 569.354C604.798 568.48 605.145 567.642 605.764 567.023C606.382 566.405 607.22 566.058 608.095 566.058H659.219ZM659.219 565.25H608.095C607.555 565.25 607.021 565.355 606.522 565.561C606.024 565.767 605.571 566.069 605.189 566.45C604.807 566.832 604.504 567.284 604.298 567.783C604.091 568.281 603.985 568.815 603.985 569.354C603.985 569.894 604.091 570.428 604.298 570.926C604.504 571.425 604.807 571.877 605.189 572.259C605.571 572.64 606.024 572.942 606.522 573.148C607.021 573.354 607.555 573.459 608.095 573.458H659.219C659.758 573.459 660.292 573.354 660.791 573.148C661.29 572.942 661.743 572.64 662.124 572.259C662.506 571.877 662.809 571.425 663.016 570.926C663.222 570.428 663.329 569.894 663.329 569.354C663.329 568.815 663.222 568.281 663.016 567.783C662.809 567.284 662.506 566.832 662.124 566.45C661.743 566.069 661.29 565.767 660.791 565.561C660.292 565.355 659.758 565.25 659.219 565.25V565.25Z" fill="#3F3D56"/>
<path d="M639.046 573.458H600.56C599.472 573.458 598.428 573.026 597.658 572.256C596.889 571.487 596.456 570.443 596.456 569.354C596.456 568.266 596.889 567.222 597.658 566.452C598.428 565.683 599.472 565.25 600.56 565.25H639.046C640.134 565.25 641.178 565.683 641.948 566.452C642.717 567.222 643.15 568.266 643.15 569.354C643.15 570.443 642.717 571.487 641.948 572.256C641.178 573.026 640.134 573.458 639.046 573.458V573.458Z" fill="#03989E"/>
<path d="M581.117 594.886C583.801 594.886 585.978 592.71 585.978 590.025C585.978 587.341 583.801 585.165 581.117 585.165C578.432 585.165 576.256 587.341 576.256 590.025C576.256 592.71 578.432 594.886 581.117 594.886Z" fill="#3F3D56"/>
<path d="M659.218 586.242C659.652 586.242 660.081 586.326 660.482 586.492C660.882 586.657 661.246 586.9 661.553 587.206C661.86 587.512 662.103 587.876 662.269 588.276C662.435 588.677 662.52 589.106 662.52 589.539C662.52 589.972 662.435 590.401 662.269 590.802C662.103 591.202 661.86 591.566 661.553 591.872C661.246 592.178 660.882 592.421 660.482 592.586C660.081 592.752 659.652 592.836 659.218 592.836H608.095C607.22 592.836 606.382 592.488 605.764 591.87C605.145 591.252 604.798 590.413 604.798 589.539C604.798 588.665 605.145 587.826 605.764 587.208C606.382 586.59 607.22 586.242 608.095 586.242H659.218ZM659.218 585.435H608.095C607.006 585.435 605.962 585.867 605.193 586.637C604.423 587.407 603.991 588.451 603.991 589.539C603.991 590.627 604.423 591.671 605.193 592.441C605.962 593.211 607.006 593.643 608.095 593.643H659.218C660.307 593.643 661.351 593.211 662.12 592.441C662.89 591.671 663.322 590.627 663.322 589.539C663.322 588.451 662.89 587.407 662.12 586.637C661.351 585.867 660.307 585.435 659.218 585.435Z" fill="#3F3D56"/>
<path d="M653.579 593.643H600.56C599.472 593.643 598.428 593.211 597.659 592.441C596.889 591.671 596.457 590.627 596.457 589.539C596.457 588.451 596.889 587.407 597.659 586.637C598.428 585.867 599.472 585.435 600.56 585.435H653.579C654.667 585.435 655.711 585.867 656.481 586.637C657.251 587.407 657.683 588.451 657.683 589.539C657.683 590.627 657.251 591.671 656.481 592.441C655.711 593.211 654.667 593.643 653.579 593.643Z" fill="#03989E"/>
<path d="M581.117 615.071C583.801 615.071 585.978 612.895 585.978 610.21C585.978 607.525 583.801 605.349 581.117 605.349C578.432 605.349 576.256 607.525 576.256 610.21C576.256 612.895 578.432 615.071 581.117 615.071Z" fill="#3F3D56"/>
<path d="M659.218 606.428C659.652 606.427 660.081 606.512 660.482 606.677C660.882 606.842 661.246 607.085 661.553 607.391C661.86 607.697 662.103 608.061 662.269 608.461C662.435 608.862 662.52 609.291 662.52 609.724C662.52 610.157 662.435 610.587 662.269 610.987C662.103 611.387 661.86 611.751 661.553 612.057C661.246 612.363 660.882 612.606 660.482 612.771C660.081 612.937 659.652 613.021 659.218 613.021H608.095C607.22 613.021 606.382 612.673 605.764 612.055C605.145 611.437 604.798 610.598 604.798 609.724C604.798 608.85 605.145 608.011 605.764 607.393C606.382 606.775 607.22 606.428 608.095 606.428H659.218ZM659.218 605.62H608.095C607.006 605.62 605.962 606.053 605.193 606.822C604.423 607.592 603.991 608.636 603.991 609.724C603.991 610.813 604.423 611.856 605.193 612.626C605.962 613.396 607.006 613.828 608.095 613.828H659.218C660.307 613.828 661.351 613.396 662.12 612.626C662.89 611.856 663.322 610.813 663.322 609.724C663.322 608.636 662.89 607.592 662.12 606.822C661.351 606.053 660.307 605.62 659.218 605.62Z" fill="#3F3D56"/>
<path d="M622.091 613.828H600.56C600.021 613.829 599.487 613.723 598.988 613.517C598.489 613.312 598.036 613.009 597.655 612.628C597.273 612.247 596.97 611.794 596.763 611.296C596.557 610.798 596.45 610.264 596.45 609.724C596.45 609.185 596.557 608.65 596.763 608.152C596.97 607.654 597.273 607.201 597.655 606.82C598.036 606.439 598.489 606.137 598.988 605.931C599.487 605.725 600.021 605.619 600.56 605.62H622.091C623.178 605.622 624.22 606.055 624.989 606.824C625.757 607.594 626.189 608.637 626.189 609.724C626.189 610.811 625.757 611.854 624.989 612.624C624.22 613.393 623.178 613.826 622.091 613.828V613.828Z" fill="#03989E"/>
<path d="M526.06 443.002H162.891V629.126H526.06V443.002Z" fill="#F2F2F2"/>
<path d="M513.954 452.251H174.996V619.878H513.954V452.251Z" fill="white"/>
<path d="M471.916 594.305H224.823C224.618 594.305 224.421 594.223 224.276 594.078C224.131 593.933 224.049 593.737 224.049 593.531V475.099C224.049 474.894 224.131 474.698 224.276 474.553C224.421 474.408 224.618 474.326 224.823 474.326C225.028 474.326 225.224 474.408 225.369 474.553C225.514 474.698 225.596 474.894 225.596 475.099V592.758H471.916C472.121 592.758 472.318 592.84 472.463 592.985C472.608 593.13 472.69 593.326 472.69 593.531C472.69 593.737 472.608 593.933 472.463 594.078C472.318 594.223 472.121 594.305 471.916 594.305V594.305Z" fill="#3F3D56"/>
<path d="M277.616 585.799H255.141C254.533 585.798 253.949 585.556 253.519 585.126C253.089 584.696 252.847 584.112 252.846 583.504V552.523C252.847 551.914 253.089 551.331 253.519 550.901C253.949 550.47 254.533 550.228 255.141 550.228H277.616C278.224 550.228 278.808 550.47 279.238 550.901C279.668 551.331 279.91 551.914 279.911 552.523V583.504C279.91 584.112 279.668 584.696 279.238 585.126C278.808 585.556 278.224 585.798 277.616 585.799V585.799Z" fill="#03989E"/>
<path d="M318.6 585.799H296.126C295.518 585.798 294.934 585.556 294.504 585.126C294.073 584.695 293.831 584.112 293.831 583.503V523.138C293.831 522.529 294.073 521.946 294.504 521.515C294.934 521.085 295.518 520.843 296.126 520.842H318.6C319.209 520.843 319.792 521.085 320.223 521.515C320.653 521.946 320.895 522.529 320.896 523.138V583.503C320.895 584.112 320.653 584.695 320.223 585.126C319.792 585.556 319.209 585.798 318.6 585.799V585.799Z" fill="#03989E"/>
<path d="M359.585 585.799H337.11C336.502 585.798 335.918 585.556 335.488 585.126C335.058 584.696 334.816 584.112 334.815 583.504V552.523C334.816 551.914 335.058 551.331 335.488 550.901C335.918 550.47 336.502 550.228 337.11 550.228H359.585C360.193 550.228 360.777 550.47 361.207 550.901C361.637 551.331 361.879 551.914 361.88 552.523V583.504C361.879 584.112 361.637 584.696 361.207 585.126C360.777 585.556 360.193 585.798 359.585 585.799V585.799Z" fill="#03989E"/>
<path d="M400.569 585.799H378.095C377.5 585.812 376.925 585.588 376.494 585.178C376.064 584.767 375.814 584.202 375.799 583.608V511.435C375.814 510.84 376.064 510.275 376.494 509.865C376.925 509.454 377.5 509.23 378.095 509.243H400.569C401.164 509.23 401.739 509.454 402.169 509.865C402.6 510.275 402.85 510.84 402.864 511.435V583.608C402.85 584.202 402.6 584.767 402.169 585.178C401.739 585.588 401.164 585.812 400.569 585.799V585.799Z" fill="#03989E"/>
<path d="M441.553 585.799H419.079C418.471 585.798 417.887 585.556 417.457 585.126C417.027 584.695 416.784 584.112 416.784 583.503V490.66C416.784 490.051 417.027 489.468 417.457 489.037C417.887 488.607 418.471 488.365 419.079 488.364H441.553C442.162 488.365 442.745 488.607 443.176 489.037C443.606 489.468 443.848 490.051 443.849 490.66V583.503C443.848 584.112 443.606 584.695 443.176 585.126C442.745 585.556 442.162 585.798 441.553 585.799V585.799Z" fill="#03989E"/>
<path d="M266.379 540.948C268.941 540.948 271.018 538.871 271.018 536.308C271.018 533.746 268.941 531.668 266.379 531.668C263.816 531.668 261.739 533.746 261.739 536.308C261.739 538.871 263.816 540.948 266.379 540.948Z" fill="#3F3D56"/>
<path d="M307.363 510.79C309.926 510.79 312.003 508.712 312.003 506.15C312.003 503.588 309.926 501.51 307.363 501.51C304.801 501.51 302.723 503.588 302.723 506.15C302.723 508.712 304.801 510.79 307.363 510.79Z" fill="#3F3D56"/>
<path d="M348.347 540.948C350.91 540.948 352.987 538.871 352.987 536.308C352.987 533.746 350.91 531.668 348.347 531.668C345.785 531.668 343.708 533.746 343.708 536.308C343.708 538.871 345.785 540.948 348.347 540.948Z" fill="#3F3D56"/>
<path d="M389.332 496.097C391.894 496.097 393.972 494.02 393.972 491.457C393.972 488.895 391.894 486.817 389.332 486.817C386.769 486.817 384.692 488.895 384.692 491.457C384.692 494.02 386.769 496.097 389.332 496.097Z" fill="#3F3D56"/>
<path d="M430.316 479.085C432.879 479.085 434.956 477.007 434.956 474.445C434.956 471.882 432.879 469.805 430.316 469.805C427.754 469.805 425.676 471.882 425.676 474.445C425.676 477.007 427.754 479.085 430.316 479.085Z" fill="#3F3D56"/>
<path d="M348.445 537.347L307.363 506.577L266.842 536.927L265.915 535.69L307.363 504.644L348.249 535.268L388.88 490.806L389.042 490.74L430.027 474.227L430.605 475.661L389.784 492.109L348.445 537.347Z" fill="#3F3D56"/>
<path d="M961.103 918.089H619.534C619.297 918.089 619.069 917.995 618.901 917.827C618.732 917.659 618.638 917.431 618.638 917.193C618.638 916.955 618.732 916.727 618.901 916.559C619.069 916.391 619.297 916.296 619.534 916.296H961.103C961.341 916.296 961.569 916.391 961.737 916.559C961.906 916.727 962 916.955 962 917.193C962 917.431 961.906 917.659 961.737 917.827C961.569 917.995 961.341 918.089 961.103 918.089Z" fill="#CCCCCC"/>
</g>
<defs>
<clipPath id="clip0">
<rect width="845" height="566.089" fill="white" transform="translate(117 352)"/>
</clipPath>
</defs>
</svg>
