<svg width="1080" height="1080" viewBox="0 0 1080 1080" fill="none" xmlns="http://www.w3.org/2000/svg">
<rect width="1080" height="1080" fill="#3C697C"/>
<path d="M462.62 1015.15C462.513 1017.65 461.893 1019.64 460.76 1021.11C459.637 1022.58 458.123 1023.31 456.219 1023.31C455.379 1023.31 454.651 1023.13 454.036 1022.77C453.431 1022.4 452.972 1021.89 452.659 1021.21C451.683 1022.58 450.408 1023.26 448.836 1023.26C447.41 1023.26 446.307 1022.66 445.525 1021.46C444.744 1020.26 444.451 1018.67 444.646 1016.7C444.822 1015.09 445.228 1013.66 445.862 1012.41C446.507 1011.15 447.317 1010.18 448.294 1009.51C449.271 1008.83 450.325 1008.5 451.458 1008.5C452.854 1008.5 454.046 1008.82 455.032 1009.46L455.955 1010.09L455.208 1018.56C455.11 1019.33 455.193 1019.92 455.457 1020.33C455.73 1020.74 456.16 1020.95 456.746 1020.95C457.645 1020.95 458.396 1020.43 459.002 1019.38C459.607 1018.33 459.939 1016.95 459.998 1015.25C460.164 1011.84 459.476 1009.23 457.933 1007.4C456.399 1005.56 454.124 1004.65 451.106 1004.65C449.222 1004.65 447.542 1005.12 446.067 1006.08C444.593 1007.04 443.431 1008.4 442.581 1010.17C441.731 1011.93 441.253 1013.94 441.146 1016.22C440.989 1019.67 441.683 1022.35 443.226 1024.23C444.769 1026.12 447.078 1027.07 450.154 1027.07C450.965 1027.07 451.814 1026.98 452.703 1026.79C453.592 1026.62 454.358 1026.38 455.003 1026.08L455.56 1028.33C454.964 1028.72 454.158 1029.04 453.143 1029.27C452.137 1029.51 451.121 1029.64 450.096 1029.64C447.518 1029.64 445.32 1029.11 443.504 1028.07C441.688 1027.03 440.33 1025.5 439.432 1023.47C438.543 1021.45 438.157 1019.03 438.274 1016.22C438.392 1013.52 439.007 1011.11 440.12 1008.97C441.233 1006.83 442.747 1005.18 444.661 1004.02C446.585 1002.84 448.753 1002.26 451.165 1002.26C453.616 1002.26 455.726 1002.79 457.493 1003.84C459.261 1004.88 460.584 1006.38 461.463 1008.34C462.342 1010.29 462.728 1012.56 462.62 1015.15ZM447.898 1016.7C447.791 1017.99 447.903 1018.97 448.235 1019.65C448.567 1020.31 449.104 1020.64 449.847 1020.64C450.325 1020.64 450.779 1020.43 451.209 1020.01C451.639 1019.59 451.995 1018.99 452.278 1018.2L452.894 1011.27C452.513 1011.14 452.122 1011.08 451.722 1011.08C450.599 1011.08 449.725 1011.55 449.1 1012.51C448.484 1013.47 448.084 1014.87 447.898 1016.7ZM469.959 1023H465.711V1007.15H469.959V1023ZM465.462 1003.05C465.462 1002.41 465.672 1001.89 466.092 1001.48C466.521 1001.07 467.103 1000.87 467.835 1000.87C468.558 1000.87 469.134 1001.07 469.563 1001.48C469.993 1001.89 470.208 1002.41 470.208 1003.05C470.208 1003.69 469.988 1004.22 469.549 1004.63C469.119 1005.04 468.548 1005.25 467.835 1005.25C467.122 1005.25 466.546 1005.04 466.106 1004.63C465.677 1004.22 465.462 1003.69 465.462 1003.05ZM472.801 1014.96C472.801 1012.49 473.353 1010.52 474.456 1009.05C475.569 1007.59 477.088 1006.86 479.012 1006.86C480.555 1006.86 481.829 1007.43 482.835 1008.59V1000.5H487.083V1023H483.26L483.055 1021.32C482 1022.63 480.643 1023.29 478.982 1023.29C477.117 1023.29 475.618 1022.56 474.485 1021.1C473.362 1019.62 472.801 1017.58 472.801 1014.96ZM477.034 1015.27C477.034 1016.75 477.293 1017.89 477.811 1018.68C478.328 1019.47 479.08 1019.87 480.066 1019.87C481.375 1019.87 482.298 1019.31 482.835 1018.21V1011.96C482.308 1010.85 481.395 1010.3 480.096 1010.3C478.055 1010.3 477.034 1011.96 477.034 1015.27ZM494.832 1023H490.584V1007.15H494.832V1023ZM490.335 1003.05C490.335 1002.41 490.545 1001.89 490.965 1001.48C491.395 1001.07 491.976 1000.87 492.708 1000.87C493.431 1000.87 494.007 1001.07 494.437 1001.48C494.866 1001.89 495.081 1002.41 495.081 1003.05C495.081 1003.69 494.861 1004.22 494.422 1004.63C493.992 1005.04 493.421 1005.25 492.708 1005.25C491.995 1005.25 491.419 1005.04 490.979 1004.63C490.55 1004.22 490.335 1003.69 490.335 1003.05ZM497.674 1014.93C497.674 1013.36 497.977 1011.96 498.582 1010.72C499.188 1009.49 500.057 1008.54 501.189 1007.87C502.332 1007.19 503.655 1006.86 505.159 1006.86C507.298 1006.86 509.041 1007.51 510.389 1008.82C511.746 1010.13 512.503 1011.91 512.659 1014.15L512.688 1015.24C512.688 1017.67 512.01 1019.62 510.652 1021.1C509.295 1022.56 507.474 1023.29 505.188 1023.29C502.903 1023.29 501.077 1022.56 499.71 1021.1C498.353 1019.63 497.674 1017.64 497.674 1015.12V1014.93ZM501.907 1015.24C501.907 1016.74 502.19 1017.89 502.757 1018.69C503.323 1019.48 504.134 1019.88 505.188 1019.88C506.214 1019.88 507.015 1019.49 507.591 1018.71C508.167 1017.92 508.455 1016.66 508.455 1014.93C508.455 1013.45 508.167 1012.31 507.591 1011.5C507.015 1010.69 506.204 1010.29 505.159 1010.29C504.124 1010.29 503.323 1010.69 502.757 1011.5C502.19 1012.3 501.907 1013.55 501.907 1015.24ZM520.364 1003.25V1007.15H523.074V1010.26H520.364V1018.17C520.364 1018.75 520.477 1019.17 520.701 1019.43C520.926 1019.68 521.355 1019.81 521.99 1019.81C522.459 1019.81 522.874 1019.77 523.235 1019.7V1022.91C522.405 1023.17 521.551 1023.29 520.672 1023.29C517.703 1023.29 516.189 1021.79 516.131 1018.8V1010.26H513.816V1007.15H516.131V1003.25H520.364ZM532.024 1019.88C532.806 1019.88 533.44 1019.67 533.929 1019.24C534.417 1018.81 534.671 1018.23 534.69 1017.52H538.66C538.65 1018.6 538.357 1019.58 537.781 1020.48C537.205 1021.37 536.414 1022.06 535.408 1022.56C534.412 1023.05 533.309 1023.29 532.098 1023.29C529.832 1023.29 528.045 1022.58 526.736 1021.14C525.428 1019.69 524.773 1017.7 524.773 1015.16V1014.88C524.773 1012.44 525.423 1010.5 526.722 1009.04C528.021 1007.58 529.803 1006.86 532.068 1006.86C534.051 1006.86 535.638 1007.42 536.829 1008.56C538.03 1009.68 538.641 1011.18 538.66 1013.05H534.69C534.671 1012.23 534.417 1011.57 533.929 1011.06C533.44 1010.54 532.796 1010.29 531.995 1010.29C531.009 1010.29 530.262 1010.65 529.754 1011.37C529.256 1012.08 529.007 1013.24 529.007 1014.86V1015.29C529.007 1016.93 529.256 1018.1 529.754 1018.81C530.252 1019.52 531.009 1019.88 532.024 1019.88ZM540.418 1014.93C540.418 1013.36 540.721 1011.96 541.326 1010.72C541.932 1009.49 542.801 1008.54 543.934 1007.87C545.076 1007.19 546.399 1006.86 547.903 1006.86C550.042 1006.86 551.785 1007.51 553.133 1008.82C554.49 1010.13 555.247 1011.91 555.403 1014.15L555.433 1015.24C555.433 1017.67 554.754 1019.62 553.396 1021.1C552.039 1022.56 550.218 1023.29 547.933 1023.29C545.647 1023.29 543.821 1022.56 542.454 1021.1C541.097 1019.63 540.418 1017.64 540.418 1015.12V1014.93ZM544.651 1015.24C544.651 1016.74 544.935 1017.89 545.501 1018.69C546.067 1019.48 546.878 1019.88 547.933 1019.88C548.958 1019.88 549.759 1019.49 550.335 1018.71C550.911 1017.92 551.199 1016.66 551.199 1014.93C551.199 1013.45 550.911 1012.31 550.335 1011.5C549.759 1010.69 548.948 1010.29 547.903 1010.29C546.868 1010.29 546.067 1010.69 545.501 1011.5C544.935 1012.3 544.651 1013.55 544.651 1015.24ZM557.381 1014.96C557.381 1012.49 557.933 1010.52 559.036 1009.05C560.149 1007.59 561.668 1006.86 563.592 1006.86C565.135 1006.86 566.409 1007.43 567.415 1008.59V1000.5H571.663V1023H567.84L567.635 1021.32C566.58 1022.63 565.223 1023.29 563.562 1023.29C561.697 1023.29 560.198 1022.56 559.065 1021.1C557.942 1019.62 557.381 1017.58 557.381 1014.96ZM561.614 1015.27C561.614 1016.75 561.873 1017.89 562.391 1018.68C562.908 1019.47 563.66 1019.87 564.646 1019.87C565.955 1019.87 566.878 1019.31 567.415 1018.21V1011.96C566.888 1010.85 565.975 1010.3 564.676 1010.3C562.635 1010.3 561.614 1011.96 561.614 1015.27ZM579.412 1023H575.164V1007.15H579.412V1023ZM574.915 1003.05C574.915 1002.41 575.125 1001.89 575.545 1001.48C575.975 1001.07 576.556 1000.87 577.288 1000.87C578.011 1000.87 578.587 1001.07 579.017 1001.48C579.446 1001.89 579.661 1002.41 579.661 1003.05C579.661 1003.69 579.441 1004.22 579.002 1004.63C578.572 1005.04 578.001 1005.25 577.288 1005.25C576.575 1005.25 575.999 1005.04 575.56 1004.63C575.13 1004.22 574.915 1003.69 574.915 1003.05ZM586.81 1007.15L586.941 1008.98C588.074 1007.57 589.593 1006.86 591.497 1006.86C593.177 1006.86 594.427 1007.35 595.247 1008.34C596.067 1009.32 596.487 1010.8 596.507 1012.76V1023H592.273V1012.86C592.273 1011.96 592.078 1011.32 591.688 1010.92C591.297 1010.5 590.647 1010.3 589.739 1010.3C588.548 1010.3 587.654 1010.81 587.059 1011.82V1023H582.825V1007.15H586.81ZM599.114 1014.96C599.114 1012.53 599.69 1010.57 600.843 1009.08C602.005 1007.6 603.567 1006.86 605.53 1006.86C607.269 1006.86 608.621 1007.45 609.588 1008.64L609.764 1007.15H613.602V1022.47C613.602 1023.86 613.284 1025.07 612.649 1026.09C612.024 1027.12 611.141 1027.9 609.998 1028.43C608.855 1028.97 607.518 1029.24 605.984 1029.24C604.822 1029.24 603.689 1029.01 602.586 1028.54C601.482 1028.08 600.647 1027.48 600.081 1026.75L601.956 1024.17C603.011 1025.35 604.29 1025.94 605.794 1025.94C606.917 1025.94 607.791 1025.64 608.416 1025.04C609.041 1024.44 609.354 1023.59 609.354 1022.49V1021.64C608.377 1022.74 607.093 1023.29 605.501 1023.29C603.597 1023.29 602.054 1022.55 600.872 1021.07C599.7 1019.57 599.114 1017.59 599.114 1015.13V1014.96ZM603.348 1015.27C603.348 1016.7 603.636 1017.83 604.212 1018.65C604.788 1019.46 605.579 1019.87 606.585 1019.87C607.874 1019.87 608.797 1019.38 609.354 1018.42V1011.75C608.787 1010.78 607.874 1010.3 606.614 1010.3C605.599 1010.3 604.798 1010.71 604.212 1011.54C603.636 1012.38 603.348 1013.62 603.348 1015.27ZM628.602 1026.31H615.257V1023H628.602V1026.31ZM641.99 1026.31H628.646V1023H641.99V1026.31Z" fill="black"/>
<path d="M540.266 260.527L543.137 235.234H571.027V243.472H551.237L550.007 254.17C552.354 252.917 554.849 252.29 557.492 252.29C562.232 252.29 565.946 253.76 568.635 256.699C571.324 259.639 572.668 263.752 572.668 269.038C572.668 272.251 571.984 275.133 570.617 277.686C569.273 280.215 567.336 282.186 564.807 283.599C562.277 284.989 559.292 285.684 555.852 285.684C552.844 285.684 550.052 285.08 547.478 283.872C544.903 282.642 542.863 280.921 541.359 278.711C539.878 276.501 539.092 273.983 539.001 271.157H548.776C548.981 273.231 549.699 274.849 550.93 276.011C552.183 277.15 553.812 277.72 555.817 277.72C558.05 277.72 559.771 276.922 560.979 275.327C562.186 273.709 562.79 271.431 562.79 268.491C562.79 265.666 562.095 263.501 560.705 261.997C559.315 260.493 557.344 259.741 554.792 259.741C552.445 259.741 550.542 260.356 549.084 261.587L548.127 262.476L540.266 260.527ZM632.893 243.54H617.648V285H607.395V243.54H592.355V235.234H632.893V243.54ZM648.547 285H638.635V248.018H648.547V285ZM638.054 238.447C638.054 236.966 638.544 235.747 639.523 234.79C640.526 233.833 641.882 233.354 643.591 233.354C645.277 233.354 646.621 233.833 647.624 234.79C648.627 235.747 649.128 236.966 649.128 238.447C649.128 239.951 648.615 241.182 647.59 242.139C646.587 243.096 645.254 243.574 643.591 243.574C641.927 243.574 640.583 243.096 639.558 242.139C638.555 241.182 638.054 239.951 638.054 238.447ZM690.007 266.851C690.007 272.547 688.708 277.116 686.11 280.557C683.535 283.975 680.049 285.684 675.651 285.684C671.914 285.684 668.895 284.385 666.594 281.787V299.219H656.716V248.018H665.876L666.218 251.641C668.61 248.77 671.732 247.334 675.583 247.334C680.14 247.334 683.684 249.02 686.213 252.393C688.742 255.765 690.007 260.413 690.007 266.338V266.851ZM680.129 266.133C680.129 262.692 679.514 260.037 678.283 258.169C677.076 256.3 675.31 255.366 672.985 255.366C669.886 255.366 667.756 256.551 666.594 258.921V274.062C667.801 276.501 669.955 277.72 673.054 277.72C677.771 277.72 680.129 273.857 680.129 266.133ZM716.188 274.78C716.188 273.573 715.585 272.627 714.377 271.943C713.192 271.237 711.278 270.61 708.635 270.063C699.839 268.218 695.441 264.481 695.441 258.853C695.441 255.571 696.797 252.837 699.509 250.649C702.243 248.439 705.809 247.334 710.207 247.334C714.901 247.334 718.649 248.439 721.452 250.649C724.278 252.86 725.69 255.731 725.69 259.263H715.812C715.812 257.85 715.357 256.688 714.445 255.776C713.534 254.842 712.11 254.375 710.173 254.375C708.509 254.375 707.222 254.751 706.311 255.503C705.399 256.255 704.943 257.212 704.943 258.374C704.943 259.468 705.456 260.356 706.481 261.04C707.53 261.701 709.284 262.282 711.745 262.783C714.206 263.262 716.28 263.809 717.966 264.424C723.184 266.338 725.793 269.653 725.793 274.37C725.793 277.743 724.346 280.477 721.452 282.573C718.558 284.647 714.821 285.684 710.241 285.684C707.142 285.684 704.385 285.137 701.97 284.043C699.577 282.926 697.697 281.411 696.33 279.497C694.963 277.56 694.279 275.475 694.279 273.242H703.645C703.736 274.997 704.385 276.341 705.593 277.275C706.8 278.21 708.418 278.677 710.446 278.677C712.338 278.677 713.762 278.324 714.719 277.617C715.699 276.888 716.188 275.942 716.188 274.78ZM763.664 235.234L776.447 271.328L789.162 235.234H802.629V285H792.341V271.396L793.366 247.915L779.934 285H772.893L759.494 247.949L760.52 271.396V285H750.266V235.234H763.664ZM827.956 285.684C822.533 285.684 818.112 284.02 814.694 280.693C811.299 277.367 809.602 272.935 809.602 267.397V266.44C809.602 262.726 810.319 259.411 811.755 256.494C813.19 253.555 815.218 251.299 817.839 249.727C820.482 248.132 823.49 247.334 826.862 247.334C831.921 247.334 835.897 248.929 838.791 252.119C841.708 255.309 843.166 259.832 843.166 265.688V269.722H819.616C819.935 272.137 820.892 274.074 822.487 275.532C824.105 276.991 826.145 277.72 828.605 277.72C832.411 277.72 835.384 276.341 837.526 273.584L842.38 279.019C840.899 281.115 838.894 282.756 836.364 283.94C833.835 285.103 831.032 285.684 827.956 285.684ZM826.828 255.332C824.868 255.332 823.273 255.993 822.043 257.314C820.835 258.636 820.061 260.527 819.719 262.988H833.459V262.202C833.413 260.015 832.821 258.328 831.682 257.144C830.542 255.936 828.924 255.332 826.828 255.332ZM857.897 248.018L858.205 252.29C860.848 248.986 864.392 247.334 868.835 247.334C872.754 247.334 875.671 248.485 877.585 250.786C879.499 253.088 880.479 256.528 880.524 261.108V285H870.646V261.348C870.646 259.251 870.191 257.736 869.279 256.802C868.368 255.845 866.853 255.366 864.733 255.366C861.953 255.366 859.868 256.551 858.479 258.921V285H848.601V248.018H857.897ZM898.503 248.018V287.017C898.503 291.095 897.421 294.263 895.256 296.519C893.091 298.797 889.969 299.937 885.891 299.937C884.182 299.937 882.552 299.743 881.003 299.355V291.528C882.188 291.733 883.225 291.836 884.113 291.836C887.098 291.836 888.591 290.252 888.591 287.085V248.018H898.503ZM887.805 238.447C887.805 236.966 888.295 235.747 889.274 234.79C890.277 233.833 891.633 233.354 893.342 233.354C895.051 233.354 896.395 233.833 897.375 234.79C898.378 235.747 898.879 236.966 898.879 238.447C898.879 239.951 898.366 241.182 897.341 242.139C896.338 243.096 895.005 243.574 893.342 243.574C891.678 243.574 890.334 243.096 889.309 242.139C888.306 241.182 887.805 239.951 887.805 238.447ZM927.658 285C927.202 284.111 926.872 283.006 926.667 281.685C924.274 284.351 921.164 285.684 917.336 285.684C913.713 285.684 910.705 284.635 908.312 282.539C905.943 280.443 904.758 277.799 904.758 274.609C904.758 270.69 906.205 267.682 909.099 265.586C912.015 263.49 916.219 262.43 921.711 262.407H926.257V260.288C926.257 258.579 925.812 257.212 924.924 256.187C924.058 255.161 922.679 254.648 920.788 254.648C919.125 254.648 917.814 255.047 916.857 255.845C915.923 256.642 915.456 257.736 915.456 259.126H905.578C905.578 256.984 906.239 255.002 907.561 253.179C908.882 251.356 910.751 249.932 913.166 248.906C915.581 247.858 918.293 247.334 921.301 247.334C925.858 247.334 929.47 248.485 932.136 250.786C934.825 253.065 936.169 256.278 936.169 260.425V276.455C936.192 279.964 936.682 282.619 937.639 284.419V285H927.658ZM919.489 278.13C920.948 278.13 922.292 277.811 923.522 277.173C924.753 276.512 925.664 275.635 926.257 274.541V268.184H922.565C917.621 268.184 914.989 269.893 914.67 273.311L914.636 273.892C914.636 275.122 915.069 276.136 915.935 276.934C916.8 277.731 917.985 278.13 919.489 278.13ZM942.219 266.235C942.219 260.47 943.506 255.879 946.081 252.461C948.679 249.043 952.222 247.334 956.711 247.334C960.311 247.334 963.285 248.678 965.632 251.367V232.5H975.544V285H966.623L966.145 281.069C963.684 284.146 960.516 285.684 956.643 285.684C952.29 285.684 948.793 283.975 946.149 280.557C943.529 277.116 942.219 272.342 942.219 266.235ZM952.097 266.953C952.097 270.417 952.701 273.071 953.908 274.917C955.116 276.763 956.87 277.686 959.172 277.686C962.225 277.686 964.379 276.398 965.632 273.823V259.229C964.401 256.654 962.271 255.366 959.24 255.366C954.478 255.366 952.097 259.229 952.097 266.953ZM993.625 285H983.713V248.018H993.625V285ZM983.132 238.447C983.132 236.966 983.622 235.747 984.602 234.79C985.604 233.833 986.96 233.354 988.669 233.354C990.355 233.354 991.7 233.833 992.702 234.79C993.705 235.747 994.206 236.966 994.206 238.447C994.206 239.951 993.693 241.182 992.668 242.139C991.665 243.096 990.332 243.574 988.669 243.574C987.006 243.574 985.661 243.096 984.636 242.139C983.633 241.182 983.132 239.951 983.132 238.447ZM448.049 349.466V367H437.795V317.234H457.209C460.946 317.234 464.227 317.918 467.053 319.285C469.901 320.652 472.089 322.601 473.615 325.13C475.142 327.636 475.905 330.496 475.905 333.709C475.905 338.585 474.23 342.436 470.881 345.262C467.554 348.064 462.94 349.466 457.038 349.466H448.049ZM448.049 341.16H457.209C459.921 341.16 461.983 340.522 463.396 339.246C464.831 337.97 465.549 336.147 465.549 333.777C465.549 331.339 464.831 329.368 463.396 327.864C461.96 326.36 459.978 325.586 457.448 325.54H448.049V341.16ZM503.112 339.28C501.768 339.098 500.583 339.007 499.558 339.007C495.821 339.007 493.371 340.271 492.209 342.801V367H482.331V330.018H491.662L491.936 334.427C493.918 331.032 496.664 329.334 500.173 329.334C501.267 329.334 502.292 329.482 503.249 329.778L503.112 339.28ZM505.129 348.167C505.129 344.498 505.835 341.229 507.248 338.357C508.661 335.486 510.689 333.265 513.332 331.692C515.998 330.12 519.086 329.334 522.595 329.334C527.585 329.334 531.652 330.861 534.797 333.914C537.964 336.967 539.73 341.115 540.095 346.355L540.163 348.885C540.163 354.559 538.579 359.116 535.412 362.557C532.245 365.975 527.995 367.684 522.663 367.684C517.331 367.684 513.07 365.975 509.88 362.557C506.713 359.139 505.129 354.49 505.129 348.611V348.167ZM515.007 348.885C515.007 352.394 515.668 355.083 516.989 356.951C518.311 358.797 520.202 359.72 522.663 359.72C525.056 359.72 526.924 358.808 528.269 356.985C529.613 355.14 530.285 352.2 530.285 348.167C530.285 344.726 529.613 342.06 528.269 340.169C526.924 338.278 525.033 337.332 522.595 337.332C520.179 337.332 518.311 338.278 516.989 340.169C515.668 342.037 515.007 344.943 515.007 348.885ZM544.812 348.235C544.812 342.562 546.156 337.993 548.845 334.529C551.556 331.066 555.202 329.334 559.782 329.334C563.838 329.334 566.994 330.724 569.25 333.504L569.66 330.018H578.615V365.77C578.615 369.005 577.875 371.819 576.394 374.212C574.935 376.604 572.873 378.427 570.207 379.681C567.541 380.934 564.419 381.561 560.842 381.561C558.13 381.561 555.487 381.014 552.912 379.92C550.337 378.849 548.389 377.459 547.067 375.75L551.442 369.734C553.903 372.492 556.888 373.87 560.397 373.87C563.018 373.87 565.057 373.164 566.516 371.751C567.974 370.361 568.703 368.379 568.703 365.804V363.821C566.424 366.396 563.428 367.684 559.714 367.684C555.271 367.684 551.67 365.952 548.913 362.488C546.179 359.002 544.812 354.388 544.812 348.646V348.235ZM554.689 348.953C554.689 352.303 555.362 354.935 556.706 356.849C558.05 358.74 559.896 359.686 562.243 359.686C565.251 359.686 567.404 358.558 568.703 356.302V340.75C567.382 338.494 565.251 337.366 562.312 337.366C559.942 337.366 558.073 338.335 556.706 340.271C555.362 342.208 554.689 345.102 554.689 348.953ZM607.019 339.28C605.674 339.098 604.489 339.007 603.464 339.007C599.727 339.007 597.277 340.271 596.115 342.801V367H586.237V330.018H595.568L595.842 334.427C597.824 331.032 600.57 329.334 604.079 329.334C605.173 329.334 606.198 329.482 607.155 329.778L607.019 339.28ZM632.209 367C631.753 366.111 631.423 365.006 631.218 363.685C628.825 366.351 625.715 367.684 621.887 367.684C618.264 367.684 615.256 366.635 612.863 364.539C610.493 362.443 609.309 359.799 609.309 356.609C609.309 352.69 610.756 349.682 613.649 347.586C616.566 345.49 620.77 344.43 626.262 344.407H630.808V342.288C630.808 340.579 630.363 339.212 629.475 338.187C628.609 337.161 627.23 336.648 625.339 336.648C623.675 336.648 622.365 337.047 621.408 337.845C620.474 338.642 620.007 339.736 620.007 341.126H610.129C610.129 338.984 610.79 337.002 612.111 335.179C613.433 333.356 615.301 331.932 617.717 330.906C620.132 329.858 622.844 329.334 625.852 329.334C630.409 329.334 634.021 330.485 636.687 332.786C639.375 335.065 640.72 338.278 640.72 342.425V358.455C640.743 361.964 641.232 364.619 642.189 366.419V367H632.209ZM624.04 360.13C625.498 360.13 626.843 359.811 628.073 359.173C629.304 358.512 630.215 357.635 630.808 356.541V350.184H627.116C622.172 350.184 619.54 351.893 619.221 355.311L619.187 355.892C619.187 357.122 619.619 358.136 620.485 358.934C621.351 359.731 622.536 360.13 624.04 360.13ZM657.57 330.018L657.878 334.153C660.498 330.94 664.042 329.334 668.508 329.334C673.27 329.334 676.54 331.214 678.317 334.974C680.915 331.214 684.618 329.334 689.426 329.334C693.436 329.334 696.421 330.507 698.381 332.854C700.34 335.179 701.32 338.688 701.32 343.382V367H691.408V343.416C691.408 341.32 690.998 339.793 690.178 338.836C689.357 337.856 687.91 337.366 685.837 337.366C682.875 337.366 680.824 338.779 679.685 341.604L679.719 367H669.841V343.45C669.841 341.308 669.419 339.759 668.576 338.802C667.733 337.845 666.298 337.366 664.27 337.366C661.467 337.366 659.439 338.528 658.186 340.853V367H648.308V330.018H657.57ZM718.205 330.018L718.513 334.153C721.133 330.94 724.676 329.334 729.143 329.334C733.905 329.334 737.175 331.214 738.952 334.974C741.55 331.214 745.253 329.334 750.061 329.334C754.071 329.334 757.056 330.507 759.016 332.854C760.975 335.179 761.955 338.688 761.955 343.382V367H752.043V343.416C752.043 341.32 751.633 339.793 750.812 338.836C749.992 337.856 748.545 337.366 746.472 337.366C743.509 337.366 741.459 338.779 740.319 341.604L740.354 367H730.476V343.45C730.476 341.308 730.054 339.759 729.211 338.802C728.368 337.845 726.932 337.366 724.904 337.366C722.102 337.366 720.074 338.528 718.82 340.853V367H708.942V330.018H718.205ZM786.599 367.684C781.175 367.684 776.755 366.02 773.337 362.693C769.942 359.367 768.244 354.935 768.244 349.397V348.44C768.244 344.726 768.962 341.411 770.397 338.494C771.833 335.555 773.861 333.299 776.481 331.727C779.125 330.132 782.132 329.334 785.505 329.334C790.563 329.334 794.54 330.929 797.434 334.119C800.35 337.309 801.809 341.832 801.809 347.688V351.722H778.259C778.578 354.137 779.535 356.074 781.13 357.532C782.748 358.991 784.787 359.72 787.248 359.72C791.053 359.72 794.027 358.341 796.169 355.584L801.022 361.019C799.541 363.115 797.536 364.756 795.007 365.94C792.478 367.103 789.675 367.684 786.599 367.684ZM785.471 337.332C783.511 337.332 781.916 337.993 780.686 339.314C779.478 340.636 778.703 342.527 778.361 344.988H792.102V344.202C792.056 342.015 791.464 340.328 790.324 339.144C789.185 337.936 787.567 337.332 785.471 337.332ZM828.229 339.28C826.885 339.098 825.7 339.007 824.675 339.007C820.938 339.007 818.488 340.271 817.326 342.801V367H807.448V330.018H816.779L817.053 334.427C819.035 331.032 821.781 329.334 825.29 329.334C826.384 329.334 827.409 329.482 828.366 329.778L828.229 339.28ZM864.255 353.021L871.091 330.018H881.687L866.818 372.742L865.998 374.69C863.788 379.521 860.142 381.937 855.061 381.937C853.625 381.937 852.167 381.72 850.686 381.287V373.802L852.189 373.836C854.058 373.836 855.448 373.551 856.359 372.981C857.294 372.412 858.023 371.466 858.547 370.145L859.709 367.103L846.755 330.018H857.385L864.255 353.021ZM906.467 367C906.011 366.111 905.681 365.006 905.476 363.685C903.083 366.351 899.973 367.684 896.145 367.684C892.521 367.684 889.514 366.635 887.121 364.539C884.751 362.443 883.566 359.799 883.566 356.609C883.566 352.69 885.013 349.682 887.907 347.586C890.824 345.49 895.028 344.43 900.52 344.407H905.065V342.288C905.065 340.579 904.621 339.212 903.732 338.187C902.867 337.161 901.488 336.648 899.597 336.648C897.933 336.648 896.623 337.047 895.666 337.845C894.732 338.642 894.265 339.736 894.265 341.126H884.387C884.387 338.984 885.048 337.002 886.369 335.179C887.691 333.356 889.559 331.932 891.975 330.906C894.39 329.858 897.102 329.334 900.109 329.334C904.667 329.334 908.278 330.485 910.944 332.786C913.633 335.065 914.978 338.278 914.978 342.425V358.455C915 361.964 915.49 364.619 916.447 366.419V367H906.467ZM898.298 360.13C899.756 360.13 901.101 359.811 902.331 359.173C903.562 358.512 904.473 357.635 905.065 356.541V350.184H901.374C896.429 350.184 893.798 351.893 893.479 355.311L893.444 355.892C893.444 357.122 893.877 358.136 894.743 358.934C895.609 359.731 896.794 360.13 898.298 360.13ZM931.657 330.018L931.965 334.29C934.608 330.986 938.151 329.334 942.595 329.334C946.514 329.334 949.431 330.485 951.345 332.786C953.259 335.088 954.239 338.528 954.284 343.108V367H944.406V343.348C944.406 341.251 943.951 339.736 943.039 338.802C942.128 337.845 940.612 337.366 938.493 337.366C935.713 337.366 933.628 338.551 932.238 340.921V367H922.36V330.018H931.657ZM960.368 348.235C960.368 342.562 961.713 337.993 964.401 334.529C967.113 331.066 970.759 329.334 975.339 329.334C979.395 329.334 982.551 330.724 984.807 333.504L985.217 330.018H994.172V365.77C994.172 369.005 993.431 371.819 991.95 374.212C990.492 376.604 988.43 378.427 985.764 379.681C983.098 380.934 979.976 381.561 976.398 381.561C973.687 381.561 971.044 381.014 968.469 379.92C965.894 378.849 963.946 377.459 962.624 375.75L966.999 369.734C969.46 372.492 972.445 373.87 975.954 373.87C978.575 373.87 980.614 373.164 982.072 371.751C983.531 370.361 984.26 368.379 984.26 365.804V363.821C981.981 366.396 978.985 367.684 975.271 367.684C970.827 367.684 967.227 365.952 964.47 362.488C961.735 359.002 960.368 354.388 960.368 348.646V348.235ZM970.246 348.953C970.246 352.303 970.918 354.935 972.263 356.849C973.607 358.74 975.453 359.686 977.8 359.686C980.808 359.686 982.961 358.558 984.26 356.302V340.75C982.938 338.494 980.808 337.366 977.868 337.366C975.498 337.366 973.63 338.335 972.263 340.271C970.918 342.208 970.246 345.102 970.246 348.953ZM666.594 440.763H688.366V449H656.34V399.234H666.594V440.763ZM710.651 449.684C705.228 449.684 700.808 448.02 697.39 444.693C693.994 441.367 692.297 436.935 692.297 431.397V430.44C692.297 426.726 693.015 423.411 694.45 420.494C695.886 417.555 697.914 415.299 700.534 413.727C703.177 412.132 706.185 411.334 709.558 411.334C714.616 411.334 718.592 412.929 721.486 416.119C724.403 419.309 725.861 423.832 725.861 429.688V433.722H702.312C702.631 436.137 703.588 438.074 705.183 439.532C706.8 440.991 708.84 441.72 711.301 441.72C715.106 441.72 718.08 440.341 720.222 437.584L725.075 443.019C723.594 445.115 721.589 446.756 719.06 447.94C716.53 449.103 713.728 449.684 710.651 449.684ZM709.523 419.332C707.564 419.332 705.969 419.993 704.738 421.314C703.531 422.636 702.756 424.527 702.414 426.988H716.154V426.202C716.109 424.015 715.516 422.328 714.377 421.144C713.238 419.936 711.62 419.332 709.523 419.332ZM764.826 430.851C764.826 436.775 763.562 441.401 761.032 444.728C758.503 448.032 754.971 449.684 750.437 449.684C746.426 449.684 743.225 448.146 740.832 445.069L740.388 449H731.501V396.5H741.379V415.333C743.658 412.667 746.654 411.334 750.368 411.334C754.88 411.334 758.412 412.997 760.964 416.324C763.539 419.628 764.826 424.288 764.826 430.304V430.851ZM754.948 430.133C754.948 426.396 754.356 423.673 753.171 421.964C751.986 420.232 750.22 419.366 747.873 419.366C744.729 419.366 742.564 420.654 741.379 423.229V437.823C742.587 440.421 744.774 441.72 747.941 441.72C751.132 441.72 753.228 440.147 754.23 437.003C754.709 435.499 754.948 433.209 754.948 430.133ZM781.369 449H771.457V412.018H781.369V449ZM770.876 402.447C770.876 400.966 771.366 399.747 772.346 398.79C773.348 397.833 774.704 397.354 776.413 397.354C778.099 397.354 779.444 397.833 780.446 398.79C781.449 399.747 781.95 400.966 781.95 402.447C781.95 403.951 781.438 405.182 780.412 406.139C779.41 407.096 778.076 407.574 776.413 407.574C774.75 407.574 773.405 407.096 772.38 406.139C771.377 405.182 770.876 403.951 770.876 402.447ZM799.177 416.051C801.797 412.906 805.09 411.334 809.055 411.334C817.076 411.334 821.143 415.994 821.257 425.313V449H811.379V425.587C811.379 423.468 810.923 421.907 810.012 420.904C809.1 419.879 807.585 419.366 805.466 419.366C802.572 419.366 800.476 420.483 799.177 422.716V449H789.299V396.5H799.177V416.051ZM846.789 449V399.234H864.221C870.259 399.234 874.839 400.396 877.961 402.721C881.083 405.022 882.644 408.406 882.644 412.872C882.644 415.31 882.017 417.464 880.764 419.332C879.51 421.178 877.767 422.534 875.534 423.399C878.086 424.037 880.091 425.325 881.55 427.262C883.031 429.199 883.771 431.568 883.771 434.371C883.771 439.156 882.245 442.779 879.191 445.24C876.138 447.701 871.786 448.954 866.135 449H846.789ZM857.043 427.33V440.763H865.827C868.243 440.763 870.122 440.193 871.467 439.054C872.834 437.892 873.518 436.297 873.518 434.269C873.518 429.711 871.159 427.398 866.442 427.33H857.043ZM857.043 420.084H864.631C869.803 419.993 872.39 417.931 872.39 413.897C872.39 411.642 871.729 410.024 870.407 409.044C869.108 408.041 867.046 407.54 864.221 407.54H857.043V420.084ZM912.277 449C911.822 448.111 911.491 447.006 911.286 445.685C908.894 448.351 905.783 449.684 901.955 449.684C898.332 449.684 895.324 448.635 892.932 446.539C890.562 444.443 889.377 441.799 889.377 438.609C889.377 434.69 890.824 431.682 893.718 429.586C896.634 427.49 900.839 426.43 906.33 426.407H910.876V424.288C910.876 422.579 910.432 421.212 909.543 420.187C908.677 419.161 907.299 418.648 905.407 418.648C903.744 418.648 902.434 419.047 901.477 419.845C900.542 420.642 900.075 421.736 900.075 423.126H890.197C890.197 420.984 890.858 419.002 892.18 417.179C893.501 415.356 895.37 413.932 897.785 412.906C900.201 411.858 902.912 411.334 905.92 411.334C910.477 411.334 914.089 412.485 916.755 414.786C919.444 417.065 920.788 420.278 920.788 424.425V440.455C920.811 443.964 921.301 446.619 922.258 448.419V449H912.277ZM904.108 442.13C905.567 442.13 906.911 441.811 908.142 441.173C909.372 440.512 910.284 439.635 910.876 438.541V432.184H907.185C902.24 432.184 899.608 433.893 899.289 437.311L899.255 437.892C899.255 439.122 899.688 440.136 900.554 440.934C901.42 441.731 902.604 442.13 904.108 442.13ZM938.801 449H928.889V412.018H938.801V449ZM928.308 402.447C928.308 400.966 928.798 399.747 929.777 398.79C930.78 397.833 932.136 397.354 933.845 397.354C935.531 397.354 936.875 397.833 937.878 398.79C938.881 399.747 939.382 400.966 939.382 402.447C939.382 403.951 938.869 405.182 937.844 406.139C936.841 407.096 935.508 407.574 933.845 407.574C932.181 407.574 930.837 407.096 929.812 406.139C928.809 405.182 928.308 403.951 928.308 402.447ZM960.402 434.166L956.848 437.721V449H946.97V396.5H956.848V425.587L958.762 423.126L968.229 412.018H980.09L966.726 427.433L981.252 449H969.904L960.402 434.166Z" fill="white"/>
<g clip-path="url(#clip0)">
<path opacity="0.1" d="M340.78 601.48H268.546C265.988 601.48 263.915 603.554 263.915 606.112V621.485C263.915 624.044 265.988 626.117 268.546 626.117H340.78C343.338 626.117 345.412 624.044 345.412 621.485V606.112C345.412 603.554 343.338 601.48 340.78 601.48Z" fill="#6C63FF"/>
<path opacity="0.1" d="M340.78 564.52H268.546C265.988 564.52 263.915 566.593 263.915 569.151V584.524C263.915 587.083 265.988 589.156 268.546 589.156H340.78C343.338 589.156 345.412 587.083 345.412 584.524V569.151C345.412 566.593 343.338 564.52 340.78 564.52Z" fill="#6C63FF"/>
<path opacity="0.1" d="M340.78 515.239H268.546C265.988 515.239 263.915 517.313 263.915 519.871V535.244C263.915 537.802 265.988 539.876 268.546 539.876H340.78C343.338 539.876 345.412 537.802 345.412 535.244V519.871C345.412 517.313 343.338 515.239 340.78 515.239Z" fill="#6C63FF"/>
<path opacity="0.1" d="M340.78 478.284H268.546C265.988 478.284 263.915 480.358 263.915 482.916V498.289C263.915 500.847 265.988 502.921 268.546 502.921H340.78C343.338 502.921 345.412 500.847 345.412 498.289V482.916C345.412 480.358 343.338 478.284 340.78 478.284Z" fill="#6C63FF"/>
<path opacity="0.5" d="M423 860.784C611.329 860.784 764 833.013 764 798.756C764 764.499 611.329 736.728 423 736.728C234.671 736.728 82 764.499 82 798.756C82 833.013 234.671 860.784 423 860.784Z" fill="white"/>
<path d="M231.616 587.112L202.94 762.91L332.607 749.196L326.996 734.234L225.694 742.65L249.383 586.8L231.616 587.112Z" fill="#3F3D56"/>
<path d="M197.952 387.623L372.505 387L423 769.144L247.824 792.834L197.952 387.623Z" fill="#3F3D56"/>
<path d="M216.966 402.273H357.855L407.103 757.612L261.851 777.56L216.966 402.273Z" fill="white"/>
<path d="M349.838 741.628C350.723 743.323 351.384 745.156 352.537 746.683C355.903 751.184 362.293 751.889 367.087 754.825C367.327 754.947 367.525 755.138 367.655 755.374C367.873 755.891 367.387 756.433 366.919 756.758C363.285 759.307 358.516 759.363 354.071 759.332C352.577 759.385 351.083 759.243 349.626 758.908C347.276 758.285 345.262 756.645 342.943 755.978C341.74 755.678 340.51 755.505 339.271 755.461L334.402 755.131C333.106 755.112 331.823 754.874 330.606 754.426C330 754.194 329.462 753.812 329.044 753.316C328.625 752.82 328.339 752.226 328.212 751.59C328.075 750.555 328.517 749.551 328.779 748.541C329.403 746.147 329.209 743.255 331.073 741.621C331.842 741.033 332.722 740.609 333.661 740.375C337.049 739.233 340.508 738.312 344.015 737.619C346.902 737.052 348.56 739.171 349.838 741.628Z" fill="#3F3D56"/>
<path d="M294.766 755.112C294.891 756.44 294.929 757.961 293.969 758.89C293.371 759.386 292.649 759.71 291.88 759.825C287.273 760.897 282.136 760.972 278.128 758.466C277.711 758.228 277.343 757.913 277.043 757.537C276.709 757.026 276.519 756.433 276.495 755.823C276.351 754.059 276.894 752.319 277.386 750.617C278.551 746.579 279.437 742.465 280.036 738.305C280.085 737.962 291.799 740.175 292.578 741.335C293.557 742.769 293.563 746.21 293.825 747.918C294.22 750.304 294.534 752.702 294.766 755.112Z" fill="#3F3D56"/>
<path d="M338.367 592.89L341.484 621.872C342.108 627.794 342.762 633.748 342.332 639.689C341.833 646.546 339.913 653.404 340.724 660.199C341.042 662.842 341.765 665.435 341.871 668.097C341.89 669.867 341.801 671.637 341.603 673.396C340.194 690.982 344.651 708.431 347.145 725.893C347.546 728.047 347.634 730.247 347.406 732.426C347.082 734.639 346.434 737.544 348.404 738.591L329.901 745.299C327.539 742.338 329.103 737.731 328.655 733.972C328.243 730.587 326.385 727.57 325.394 724.309C324.496 721.379 324.309 718.293 324.016 715.251C322.402 698.688 317.446 682.554 316.286 665.953C316.249 664.35 316.04 662.755 315.663 661.196C315.04 659.133 313.793 657.331 312.883 655.392C311.486 652.481 310.8 649.289 310.127 646.135L306.169 627.589C302.166 633.548 302.328 641.304 301.537 648.448C300.427 658.422 297.946 668.228 295.926 678.078C295.457 680.197 295.105 682.341 294.873 684.499C294.349 690.278 295.39 696.113 294.835 701.886C294.212 708.575 291.4 715.102 292.08 721.791C292.454 725.494 293.875 728.997 294.835 732.588C295.795 736.179 296.269 740.119 294.804 743.541C289.684 741.661 284.183 741.054 278.776 741.771C272.835 735.693 271.782 727.214 271.377 718.705C270.971 710.196 271.95 701.674 270.89 693.245C270.579 690.752 270.092 688.32 270.011 685.833C269.749 677.86 273.583 670.398 275.491 662.649C277.208 655.673 277.372 648.406 275.971 641.36C275.036 636.703 273.428 632.183 272.854 627.464C272.075 620.85 273.396 614.186 274.724 607.652C275.616 603.245 276.501 598.837 277.511 594.455C278.596 589.748 279.886 584.942 282.785 581.089C287.423 574.924 295.658 572.187 303.357 572.786C311.056 573.384 318.244 576.888 324.602 581.251C329.614 584.601 334.232 588.505 338.367 592.89Z" fill="#192534"/>
<path d="M317.683 481.913C317.333 482.474 317.09 483.096 316.966 483.745C316.81 485.023 317.589 486.195 318.213 487.311C319.011 488.745 319.625 490.274 320.039 491.862C320.336 492.845 320.427 493.878 320.307 494.898C320.155 495.664 319.882 496.401 319.497 497.08C318.294 499.399 316.511 501.544 314.086 502.51C312.208 503.201 310.16 503.284 308.232 502.747C306.317 502.205 304.507 501.345 302.877 500.203C301.503 499.333 300.268 498.261 299.211 497.024C298.203 495.671 297.354 494.207 296.68 492.66C295.384 489.948 294.068 487.05 294.305 484.076C294.318 483.806 294.368 483.54 294.455 483.284C294.657 482.822 294.94 482.4 295.29 482.037C297.95 478.886 299.314 474.841 299.105 470.723L308.188 472.786C310.189 473.241 312.191 473.696 314.167 474.264C315.788 474.731 318.281 475.379 319.335 476.826C320.388 478.272 318.4 480.591 317.683 481.913Z" fill="#FBBEBE"/>
<path d="M312.82 480.367C321.937 480.367 329.328 472.976 329.328 463.859C329.328 454.742 321.937 447.352 312.82 447.352C303.703 447.352 296.312 454.742 296.312 463.859C296.312 472.976 303.703 480.367 312.82 480.367Z" fill="#FBBEBE"/>
<path d="M310.165 497.161C310.863 495.634 312.371 494.667 313.749 493.707C315.127 492.747 316.523 491.519 316.791 489.855C316.808 489.478 316.901 489.109 317.066 488.77C317.595 487.972 318.855 488.371 319.609 488.957C321.442 490.385 322.689 492.411 323.904 494.387C325.477 496.79 326.823 499.334 327.925 501.986C329.677 506.605 329.889 511.649 330.082 516.58C330.257 521.068 330.425 525.625 329.334 529.977C328.648 532.732 327.464 535.407 327.395 538.243C327.19 548.548 323.611 558.398 323.362 568.702C323.343 571.682 323.493 574.66 323.811 577.623L324.397 584.312C315.333 583.793 306.293 582.997 297.279 581.925C297.017 578.845 296.138 575.859 295.334 572.879C292.041 560.697 289.93 548.225 289.031 535.637C288.551 528.954 288.059 522.296 287.317 515.639C286.65 509.585 285.341 503.495 286.126 497.454C286.537 494.708 287.401 492.05 288.682 489.587C289.087 488.605 289.783 487.772 290.677 487.199C291.124 486.983 291.598 486.83 292.086 486.744C293.499 486.458 294.934 486.289 296.375 486.239C296.727 486.209 297.082 486.243 297.422 486.339C298.03 486.641 298.528 487.125 298.85 487.723C301.627 491.898 305.558 495.177 310.165 497.161V497.161Z" fill="#F2F2F2"/>
<path d="M302.509 495.84C303.669 497.498 306.125 497.891 307.197 499.58C307.558 500.286 307.833 501.034 308.014 501.806C308.668 503.894 309.99 505.708 310.794 507.747C311.954 510.677 311.985 513.918 311.997 517.067C312.111 519.574 311.919 522.086 311.424 524.547C311.05 526.087 310.439 527.552 309.99 529.073C309.228 531.66 308.945 534.364 309.155 537.053C309.155 537.634 309.31 538.204 309.604 538.705C310.026 539.205 310.578 539.581 311.199 539.789C313.026 540.594 314.94 541.417 316.935 541.23C317.344 541.217 317.74 541.084 318.076 540.849C318.307 540.639 318.497 540.387 318.637 540.107L319.883 538C321.012 536.074 322.19 533.917 321.754 531.716C321.437 530.581 320.96 529.495 320.339 528.493C319.542 526.867 318.863 525.186 318.306 523.463C316.318 517.746 314.304 511.948 313.855 505.914C313.591 503.617 313.847 501.291 314.603 499.106C315.189 497.762 315.925 496.488 316.798 495.31C316.6 495.045 316.327 494.847 316.014 494.741C315.701 494.635 315.363 494.627 315.046 494.718C314.419 494.911 313.811 495.164 313.232 495.472C311.399 496.245 309.367 495.964 307.515 495.435C306.792 495.223 305.645 494.499 304.897 494.549C304.641 494.581 302.553 495.915 302.509 495.84Z" fill="#6C63FF"/>
<path d="M317.103 495.771C316.729 495.472 316.149 495.198 315.819 495.547C315.708 495.698 315.627 495.87 315.582 496.052C315.258 496.925 314.304 497.355 313.437 497.691C312.571 498.028 311.636 498.215 311.112 497.573C310.947 497.323 310.866 497.027 310.88 496.727C310.895 496.428 311.004 496.141 311.193 495.908C311.577 495.447 312.039 495.056 312.558 494.755C315.426 492.731 317.379 489.658 317.994 486.202C318.799 486.841 319.331 487.761 319.484 488.777C319.69 489.768 319.715 490.79 319.921 491.782C320.226 493.203 320.906 494.531 321.062 495.971C321.143 496.738 321.062 497.511 321.062 498.277C321.09 499.027 321.177 499.773 321.323 500.509C319.865 498.963 318.836 497.149 317.103 495.771Z" fill="#F2F2F2"/>
<path d="M304.485 491.538C303.862 490.946 303.238 490.385 302.615 489.78C299.88 487.11 297.814 483.831 296.587 480.211C295.789 480.834 294.91 481.657 294.891 482.705C294.962 483.446 295.248 484.15 295.714 484.731C298.071 488.443 299.628 492.607 300.284 496.955C300.62 496.429 301.087 495.999 301.638 495.705C302.19 495.411 302.807 495.264 303.432 495.279C304.417 495.279 308.837 497.897 309.155 497.236C309.622 496.201 305.233 492.243 304.485 491.538Z" fill="#F2F2F2"/>
<path d="M318.406 486.576C324.27 492.414 331.449 496.76 339.34 499.25C340.124 499.421 340.852 499.79 341.453 500.322C341.902 500.883 342.204 501.547 342.332 502.255C343.853 508.202 344.364 514.355 344.869 520.47C345.002 521.482 344.981 522.507 344.807 523.513C344.439 525.146 343.28 526.467 342.139 527.696C338.56 531.529 334.477 535.538 333.873 540.75C333.826 541.754 333.708 542.754 333.517 543.742C333.205 544.901 332.514 545.924 332.09 547.052C330.007 552.607 334.714 559.333 331.846 564.507C333.399 567.49 334.464 570.701 335.001 574.02C335.097 575.279 335.385 576.515 335.855 577.686C336.709 579.469 338.467 580.604 339.851 582.05C344.071 586.376 344.589 592.997 344.838 599.037C344.994 602.441 344.944 606.35 342.345 608.582C340.842 609.885 338.791 610.309 336.827 610.633C334.215 611.069 331.373 611.381 329.06 610.09C327.402 609.168 326.273 607.553 325.195 605.995C323.15 603.021 321.099 600.054 319.16 597.005C316.093 592.199 313.201 586.707 314.086 581.071C313.836 586.838 312.621 592.648 309.791 597.672C306.96 602.697 302.403 606.892 296.874 608.551C291.344 610.209 284.879 609.037 280.759 604.997C279.414 603.612 278.259 602.055 277.324 600.365C274.978 596.348 273.267 591.994 272.249 587.455C271.981 586.276 271.782 584.961 272.374 583.908C272.655 583.409 273.085 583.016 273.378 582.524C274.363 580.847 273.415 578.733 272.461 577.025C271.009 577.162 269.968 575.454 270.099 573.995C270.23 572.537 271.102 571.271 271.719 569.943C273.527 566.028 273.128 561.471 272.256 557.251C271.383 553.031 270.08 548.835 270.18 544.527C270.286 539.97 267.007 535.868 264.507 532.059C263.11 529.915 261.483 527.92 260.268 525.669C257.733 520.934 257.147 515.396 258.634 510.234C259.507 507.584 260.652 505.031 262.051 502.616L264.108 498.757C264.491 497.835 265.085 497.016 265.843 496.366C266.602 495.717 267.502 495.254 268.472 495.017L282.704 489.406C284.524 488.785 286.251 487.921 287.841 486.838C289.58 485.529 290.877 483.721 292.535 482.324C292.776 482.071 293.066 481.868 293.388 481.727C293.709 481.587 294.055 481.513 294.405 481.508C295.739 481.626 296.213 483.309 296.35 484.625C296.662 487.567 298.844 490.061 299.585 492.922C303.6 508.725 312.097 523.301 314.429 539.434C317.047 533.144 319.665 526.841 323.019 520.919C323.548 520.069 323.993 519.169 324.347 518.232C324.75 516.881 324.9 515.467 324.79 514.062C324.621 510.003 323.543 506.039 322.477 502.117C321.093 496.781 319.846 491.862 318.406 486.576Z" fill="#3F3D56"/>
<path d="M345.53 534.864C345.804 537.52 346.072 540.181 346.565 542.806C347.138 545.842 348.011 548.809 348.878 551.777C349.301 553.445 349.907 555.061 350.686 556.596C350.968 557.041 351.192 557.521 351.353 558.023C351.658 559.27 350.96 560.517 350.661 561.764C349.763 565.504 352.456 569.662 350.76 573.11C350.249 574.157 349.358 575.023 349.021 576.145C348.628 577.436 349.021 578.814 349.227 580.148C349.757 583.888 348.479 587.691 347.22 591.288L345.075 597.36C343.118 593.719 341.141 590.041 338.436 586.918C337.47 585.796 336.416 584.755 335.525 583.57C334.195 581.709 333.145 579.663 332.408 577.498C330.504 572.354 329.417 566.944 329.185 561.464C329.03 559.906 329.21 558.333 329.714 556.851C330.127 555.994 330.589 555.161 331.098 554.358C332.769 551.347 333.112 547.781 333.081 544.34C333.05 540.898 332.682 537.445 333.081 534.022C333.406 531.165 334.251 528.391 335.574 525.837C336.355 524.183 337.515 522.737 338.959 521.617C340.038 520.809 341.353 520.382 342.7 520.401C344.738 520.519 344.271 522.271 344.445 523.961L345.53 534.864Z" fill="#3F3D56"/>
<path d="M253.834 526.38C252.562 530.12 251.415 533.894 250.393 537.701C249.395 541.441 248.504 545.202 247.718 548.984C247.315 550.647 247.089 552.348 247.045 554.059C247.125 556.05 247.467 558.022 248.061 559.925C252.076 574.394 259.395 587.741 267.636 600.29C269.991 597.353 272.788 594.8 275.927 592.722C276.184 592.57 276.399 592.355 276.551 592.098C276.63 591.856 276.653 591.599 276.618 591.346C276.584 591.094 276.492 590.852 276.351 590.64C274.076 585.977 270.473 581.868 269.338 576.8C268.864 574.693 268.845 572.499 268.309 570.404C267.617 567.692 266.071 565.211 265.716 562.431C265.336 559.401 266.339 556.097 264.918 553.41C267.817 552.282 269.494 549.296 270.722 546.434C272.034 543.507 272.972 540.426 273.515 537.264C274.368 531.202 273.182 525.029 270.142 519.715C268.657 517.065 266.752 514.673 264.5 512.634C263.759 511.967 262.007 510.053 260.928 510.071C259.488 510.103 259.027 512.434 258.615 513.481C256.951 517.758 255.305 522.041 253.834 526.38Z" fill="#3F3D56"/>
<path d="M279.655 596.157C279.842 596.294 280.054 596.481 280.004 596.706C279.955 596.93 279.774 596.986 279.612 597.08C278.769 597.678 278.14 598.53 277.816 599.511C276.78 601.846 275.877 604.237 275.111 606.674C273.716 604.584 272.075 602.669 270.223 600.97C268.802 599.661 267.212 598.42 266.452 596.65C266.452 596.6 269.718 594.187 270.018 593.925C270.934 593.109 272.087 590.846 273.035 590.347C274.107 589.786 275.129 591.987 275.946 592.872C277.069 594.088 278.312 595.189 279.655 596.157V596.157Z" fill="#FBBEBE"/>
<path d="M330.35 461.278C330.307 460.461 330.201 459.557 329.577 459.027C329.03 458.649 328.371 458.467 327.707 458.51C324.073 458.392 320.314 459.002 316.885 457.781C314.628 456.976 312.702 455.43 310.501 454.47C308.301 453.51 305.483 453.255 303.706 454.869C302.36 456.116 301.992 458.03 301.524 459.794C300.495 463.688 298.662 467.323 296.144 470.467C294.455 469.943 293.246 468.434 292.466 466.851C289.817 461.452 291.12 455.006 293.002 449.284C293.626 447.364 294.318 445.462 295.01 443.567L296.531 439.378C298.527 439.182 300.382 438.259 301.742 436.784L302.397 438.374C304.088 438.313 305.719 437.737 307.073 436.722C307.596 437.707 308.943 437.969 310.034 437.651C311.125 437.333 312.066 436.722 313.151 436.404C316.05 435.469 319.142 436.909 322.184 437.071C323.471 437.04 324.759 437.077 326.043 437.183C329.633 437.763 332.171 441.142 333.268 444.608C333.997 446.915 334.602 449.751 336.877 450.568C336.927 451.441 335.381 451.609 335.25 452.438C335.235 452.714 335.3 452.989 335.437 453.23L337.526 457.712C336.527 457.963 335.477 457.911 334.508 457.562C333.567 459.775 330.444 462.967 330.35 461.278Z" fill="#192534"/>
<path d="M436.179 471.035C437.237 474.453 438.07 477.937 438.672 481.464C439.121 484.107 439.383 487.043 437.868 489.25C443.641 480.566 449.669 471.621 458.44 466.016C456.654 464.079 455.295 461.789 454.452 459.293C453.609 456.797 453.301 454.151 453.547 451.528C453.596 451.005 446.346 453.741 445.791 454.053C443.248 455.468 440.916 457.226 438.435 458.741C437.151 459.52 431.802 461.366 431.752 462.481C431.752 463.198 433.878 465.393 434.277 466.147C435.06 467.714 435.697 469.35 436.179 471.035Z" fill="#FBBEBE"/>
<path d="M463.004 798.556C461.578 797.552 459.908 796.953 458.169 796.821C456.431 796.689 454.689 797.03 453.129 797.808C450.305 799.267 448.404 802.028 445.835 803.899C441.422 807.103 435.593 807.359 430.425 809.092C429.053 809.553 427.595 810.239 427.015 811.585C426.82 812.151 426.743 812.751 426.787 813.348C426.831 813.944 426.995 814.526 427.27 815.058C428.134 816.983 429.648 818.543 431.547 819.465C433.866 820.575 436.534 820.624 439.103 820.656L461.42 820.917C468.278 820.998 475.179 821.08 481.992 821.934C483.582 822.133 485.303 822.351 486.705 821.572C488.987 820.325 489.249 817.171 489.074 814.571C488.615 807.985 487.143 801.509 484.711 795.371C484.442 794.691 484.087 793.918 483.333 793.793C482.798 793.769 482.271 793.937 481.849 794.267C475.553 798.008 467.579 800.121 460.884 797.129" fill="#2F2E41"/>
<path d="M474.175 656.171C471.682 670.653 473.309 685.534 476.114 699.953C476.63 702.824 477.311 705.663 478.152 708.456C479.156 711.635 480.509 714.69 481.45 717.888C483.844 725.992 483.507 734.658 483.152 743.117L481.519 781.612C481.382 784.841 481.257 788.145 482.229 791.225C482.622 792.472 483.102 794.03 482.111 794.872C481.723 795.15 481.27 795.324 480.796 795.377C476.335 796.199 471.727 795.508 467.704 793.413L467.262 754.525C467.124 742.537 466.981 730.5 465.136 718.661C463.671 709.248 461.127 699.959 460.959 690.434C460.784 680.459 463.228 670.616 465.722 660.947C466.258 658.877 468.215 657.362 469.824 655.96C470.385 655.406 471.068 654.992 471.819 654.75C472.567 654.544 473.714 655.542 474.175 656.171Z" fill="#3F3D56"/>
<path opacity="0.1" d="M474.175 656.171C471.682 670.653 473.309 685.534 476.114 699.953C476.63 702.824 477.311 705.663 478.152 708.456C479.156 711.635 480.509 714.69 481.45 717.888C483.844 725.992 483.507 734.658 483.152 743.117L481.519 781.612C481.382 784.841 481.257 788.145 482.229 791.225C482.622 792.472 483.102 794.03 482.111 794.872C481.723 795.15 481.27 795.324 480.796 795.377C476.335 796.199 471.727 795.508 467.704 793.413L467.262 754.525C467.124 742.537 466.981 730.5 465.136 718.661C463.671 709.248 461.127 699.959 460.959 690.434C460.784 680.459 463.228 670.616 465.722 660.947C466.258 658.877 468.215 657.362 469.824 655.96C470.385 655.406 471.068 654.992 471.819 654.75C472.567 654.544 473.714 655.542 474.175 656.171Z" fill="black"/>
<path d="M427.364 610.913C426.441 614.71 428.399 618.643 428.181 622.546C428.056 624.909 427.127 627.265 427.557 629.584C427.987 631.903 429.646 633.649 430.531 635.775C431.176 637.55 431.518 639.421 431.541 641.31C431.796 645.973 431.591 650.661 431.416 655.306C431.123 663.098 430.905 670.934 431.933 678.658C432.829 685.35 434.648 691.885 437.338 698.077C438.154 699.762 438.827 701.511 439.352 703.307C439.696 704.981 439.926 706.677 440.038 708.382C440.63 713.928 442.119 719.341 444.445 724.41C446.035 727.882 448.809 730.644 449.688 734.328C450.523 737.856 449.962 741.578 450.567 745.15C451.01 747.8 452.088 750.306 452.686 752.924C453.466 756.309 453.447 759.819 453.84 763.272C454.962 773.247 459.494 783.221 456.788 792.896C456.246 794.841 455.405 796.818 455.785 798.8C455.972 799.772 456.446 800.732 456.234 801.699C456.059 802.522 455.423 803.158 455.099 803.937C454.476 805.396 455.136 807.129 456.246 808.257C457.43 809.309 458.806 810.122 460.298 810.651C464.893 812.615 469.649 814.609 474.636 814.566C475.242 814.598 475.846 814.487 476.401 814.242C477.298 813.774 477.741 812.758 478.121 811.823L480.677 805.501C480.989 804.735 481.301 803.837 480.87 803.126C480.571 802.737 480.208 802.4 479.798 802.129C477.735 800.39 478.202 797.142 478.751 794.53C480.152 787.821 480.929 780.997 481.07 774.144C481.344 760.48 479.094 746.896 476.849 733.411C476.07 728.73 475.285 724.017 473.732 719.528C472.18 715.04 469.892 710.72 470.266 706.057C470.665 701.02 469.356 695.739 470.266 690.771C471.177 685.802 472.617 680.94 473.545 675.978C474.749 669.538 475.048 662.973 475.416 656.44C475.572 653.772 475.771 651.017 477.018 648.648C477.747 647.264 478.807 646.079 479.624 644.739C481.731 641.254 482.067 636.934 484.081 633.393C485.035 631.716 486.35 630.239 487.048 628.443C487.539 627.027 487.795 625.541 487.809 624.042C488.006 620.28 487.797 616.507 487.185 612.79C476.573 607.39 464.804 604.659 452.898 604.835C448.341 604.91 443.734 605.371 439.458 606.948C435.381 608.463 431.665 610.589 427.364 610.913Z" fill="#3F3D56"/>
<path d="M452.923 808.419C451.09 810.7 451.215 813.961 450.043 816.647C448.622 819.908 445.455 821.996 442.45 823.898L423.748 835.742C422.726 836.366 421.628 837.132 421.254 838.292C421.077 839.032 421.109 839.807 421.348 840.53C421.794 842.094 422.626 843.521 423.768 844.68C424.909 845.839 426.324 846.693 427.881 847.163C429.536 847.557 431.236 847.731 432.937 847.68L441.347 847.793C443.908 847.893 446.474 847.793 449.021 847.493C451.352 847.157 453.621 846.49 455.94 846.066C460.161 845.299 464.5 845.368 468.726 844.626C471.314 844.117 473.871 843.457 476.382 842.649C479.436 841.733 482.547 840.779 485.165 838.965C485.886 838.527 486.471 837.896 486.855 837.145C487.297 836.116 487.054 834.938 486.805 833.847L482.79 816.205C482.564 814.736 482.028 813.331 481.219 812.084C480.328 810.9 478.726 810.114 477.335 810.619C476.762 810.88 476.22 811.207 475.721 811.592C473.664 812.944 471.027 813.169 468.595 812.745C467.024 812.464 464.949 812.034 463.683 810.993C462.723 810.201 462.436 808.973 461.62 808.076C461.047 807.488 460.357 807.027 459.595 806.723C458.833 806.418 458.015 806.278 457.195 806.31C456.375 806.343 455.571 806.547 454.835 806.91C454.099 807.273 453.448 807.787 452.923 808.419Z" fill="#2F2E41"/>
<path d="M440.798 468.604C453.237 468.604 463.322 458.519 463.322 446.08C463.322 433.641 453.237 423.557 440.798 423.557C428.359 423.557 418.275 433.641 418.275 446.08C418.275 458.519 428.359 468.604 440.798 468.604Z" fill="#FBBEBE"/>
<path d="M423.424 447.401C425.581 446.192 425.581 442.707 427.788 441.548C429.994 440.388 432.501 442.402 433.916 444.434C435.978 447.41 437.41 450.777 438.124 454.327C438.323 455.337 438.51 456.441 439.271 457.145C440.031 457.85 441.029 457.937 442.001 458.037C444.848 458.319 447.699 458.577 450.554 458.81C453.734 459.065 457.087 459.271 459.974 457.906C461.113 457.396 462.091 456.586 462.804 455.562C463.375 454.578 463.784 453.509 464.013 452.395C465.503 446.728 467.006 440.993 467.13 435.133C467.18 432.714 466.968 430.208 465.803 428.088C465.123 426.842 464.126 425.757 463.845 424.385C463.565 423.014 464.469 421.268 465.89 421.418C464.605 421.471 463.325 421.228 462.149 420.707C461.021 420.084 460.186 418.744 460.585 417.522C457.418 417.927 455.111 414.798 452.643 412.772C452.241 412.374 451.699 412.15 451.134 412.148C450.7 412.256 450.282 412.418 449.887 412.628C448.64 413.065 447.337 412.235 446.06 411.874C442.631 410.914 438.273 413.233 435.73 410.739C435.973 412.329 434.022 413.395 432.413 413.364C430.805 413.333 429.147 412.74 427.626 413.276C427.846 413.679 427.974 414.126 428.002 414.584C428.03 415.043 427.956 415.502 427.785 415.928C427.615 416.355 427.353 416.738 427.017 417.051C426.681 417.365 426.28 417.6 425.843 417.74L426.597 419.386C425.82 419.541 425.101 419.911 424.523 420.453C423.945 420.995 423.53 421.687 423.324 422.453C422.495 425.726 422.701 430.376 422.9 433.743C423 435.22 424.44 446.847 423.424 447.401Z" fill="#192534"/>
<path d="M442.643 475.111C431.329 487.835 428.449 505.745 426.036 522.608L422.483 547.507C421.56 553.965 420.612 560.424 419.808 566.901C419.247 571.333 418.724 575.834 419.334 580.26C419.814 583.751 420.98 587.118 421.953 590.478C424.483 599.291 425.743 608.42 425.693 617.59C426.447 615.37 429.06 614.473 431.354 613.974C450.603 609.797 470.686 611.942 488.619 620.089C491.767 611.268 491.175 601.618 492.054 592.292C493.301 578.995 497.596 566.109 498.868 552.837C499.335 547.893 499.392 542.925 499.441 537.956C499.479 534.309 499.516 530.625 498.756 527.053C497.908 523.101 496.119 519.416 494.267 515.832C489.149 505.868 483.463 496.206 477.236 486.894C474.102 482.206 470.834 477.611 467.43 473.11C465.705 470.829 463.945 468.572 462.15 466.34C460.41 464.177 459.656 462.301 456.894 463.597C451.676 466.041 446.44 470.841 442.643 475.111Z" fill="white"/>
<path d="M449.127 581.015C446.366 581.114 443.603 581.027 440.854 580.753C438.816 580.553 436.734 580.254 434.745 580.753C433.88 580.97 433.071 581.368 432.37 581.918C432.11 582.15 431.923 582.452 431.832 582.788C431.741 583.124 431.751 583.479 431.858 583.809C431.966 584.14 432.168 584.432 432.439 584.65C432.711 584.868 433.04 585.002 433.386 585.035L435.518 585.222C436.871 585.341 438.28 585.478 439.333 586.469C439.766 586.859 440.041 587.393 440.106 587.972C440.237 589.424 438.978 590.216 437.849 590.821C436.245 591.574 434.762 592.561 433.448 593.751C432.419 594.745 431.773 596.069 431.622 597.491C431.617 597.618 431.645 597.744 431.705 597.856C431.764 597.968 431.852 598.063 431.959 598.13C432.066 598.198 432.19 598.236 432.317 598.241C432.443 598.246 432.569 598.217 432.681 598.158C435.175 596.911 436.802 593.214 439.539 593.832C437.049 594.62 434.917 596.26 433.517 598.464C433.171 598.99 433.014 599.617 433.069 600.244C433.125 600.871 433.391 601.461 433.824 601.918C434.257 602.375 434.832 602.672 435.455 602.761C436.078 602.85 436.713 602.727 437.257 602.41C437.662 602.172 438.054 601.912 438.429 601.63C440.283 600.129 441.944 598.404 443.373 596.494C441.378 600.702 439.358 605.626 441.652 609.809C441.766 610.04 441.945 610.231 442.166 610.362C442.388 610.493 442.642 610.556 442.899 610.545C443.622 610.47 443.834 609.791 443.952 609.192C444.327 607.266 444.42 605.234 445.368 603.519C447.562 599.542 452.973 599.155 457.094 597.217C462.037 594.923 465.422 589.985 466.788 584.711C467.265 583.173 467.349 581.54 467.031 579.961C466.114 576.414 461.738 575.597 458.927 577.312C455.479 579.5 453.478 580.877 449.127 581.015Z" fill="#FBBEBE"/>
<path opacity="0.1" d="M444.75 511.237C449.114 517.976 456.688 521.772 463.184 526.504C464.769 527.536 466.151 528.85 467.261 530.382C468.901 532.913 469.132 536.129 468.795 539.109C468.371 543.043 467.106 546.827 465.852 550.58L463.128 558.715C461.401 563.877 459.618 569.145 456.333 573.483C455.492 574.587 454.513 575.765 454.55 577.149C454.623 577.949 454.897 578.717 455.348 579.381C456.4 581.096 457.785 582.583 459.423 583.753C461.06 584.922 462.916 585.75 464.88 586.188C466.056 586.488 467.288 586.488 468.465 586.188C470.148 585.69 471.413 584.318 472.585 583.021C478.196 576.831 483.806 570.553 487.859 563.291C491.817 556.203 494.186 548.329 496.368 540.53C497.266 537.66 497.893 534.71 498.238 531.722C498.699 526.111 497.228 520.501 494.822 515.432C492.416 510.364 489.105 505.776 485.695 501.319C482.477 496.94 478.901 492.837 475.004 489.05C468.221 482.71 459.924 478.982 450.847 482.579C444.439 485.123 442.039 490.428 441.465 497.223C440.979 502.129 442.135 507.058 444.75 511.237V511.237Z" fill="black"/>
<path d="M447.02 509.53C451.384 516.269 458.964 520.065 465.454 524.797C467.033 525.839 468.409 527.162 469.512 528.699C471.152 531.23 471.382 534.441 471.046 537.427C470.615 541.36 469.356 545.144 468.097 548.897L465.373 557.002C463.646 562.163 461.863 567.425 458.578 571.77C457.742 572.873 456.763 574.045 456.801 575.435C456.87 576.234 457.145 577.001 457.599 577.661C458.649 579.377 460.033 580.865 461.669 582.036C463.306 583.206 465.161 584.036 467.124 584.475C468.303 584.774 469.537 584.774 470.715 584.475C472.398 583.982 473.658 582.605 474.836 581.314C480.446 575.118 486.057 568.846 490.109 561.583C494.068 554.495 496.437 546.622 498.619 538.817C499.52 535.949 500.146 533.001 500.489 530.015C500.95 524.404 499.479 518.793 497.079 513.719C494.679 508.644 491.362 504.062 487.952 499.605C484.723 495.25 481.138 491.169 477.236 487.405C470.46 481.071 462.162 477.337 453.085 480.94C446.671 483.484 444.277 488.783 443.697 495.584C443.239 500.472 444.407 505.374 447.02 509.53Z" fill="white"/>
<path d="M584.866 733.137C584.871 734.763 584.703 736.384 584.367 737.975C584.305 738.274 584.236 738.598 584.168 738.854C582.397 745.954 577.404 751.147 571.444 751.478C571.245 751.478 571.045 751.478 570.821 751.478C564.518 751.478 559.188 746.042 557.43 738.555C557.38 738.355 557.337 738.156 557.293 737.931C556.957 736.341 556.789 734.719 556.794 733.094C556.794 722.951 563.072 714.734 570.821 714.734C578.569 714.734 584.866 723.013 584.866 733.137Z" fill="#3F3D56"/>
<path opacity="0.1" d="M584.866 733.137C584.871 734.763 584.703 736.384 584.367 737.975C584.305 738.274 584.236 738.598 584.168 738.854C583.956 738.854 583.75 738.854 583.544 738.854C582.001 738.771 580.466 738.562 578.956 738.23C577.618 738.644 576.251 738.956 574.867 739.165C573.805 739.325 572.735 739.425 571.662 739.465H570.578C569.293 739.465 568.01 739.379 566.737 739.209C564.679 738.934 562.657 738.432 560.709 737.713C559.643 738.068 558.556 738.359 557.455 738.586C557.405 738.386 557.361 738.187 557.318 737.962C556.982 736.372 556.814 734.75 556.819 733.125C556.819 722.982 563.097 714.766 570.846 714.766C578.594 714.766 584.866 723.013 584.866 733.137Z" fill="black"/>
<path d="M614.789 698.937C614.795 694.474 613.749 690.072 611.734 686.089L595.239 691.219L609.721 682.704C607.292 679.196 604.106 676.278 600.399 674.166C596.691 672.053 592.557 670.8 588.301 670.498C587.623 669.47 586.88 668.487 586.075 667.555L562.386 674.93L581.817 663.503C578.1 660.65 573.737 658.758 569.115 657.993C564.492 657.228 559.752 657.614 555.314 659.117C550.876 660.621 546.877 663.195 543.671 666.612C540.465 670.029 538.151 674.183 536.933 678.708L557.224 702.067L535.212 686.145C529.636 690.1 525.666 695.926 524.026 702.563C522.387 709.2 523.186 716.204 526.278 722.301C529.37 728.398 534.55 733.181 540.873 735.779C547.196 738.376 554.243 738.616 560.728 736.453C566.594 738.61 573.005 738.787 578.981 736.958C583.147 737.875 587.466 737.847 591.62 736.874C595.774 735.902 599.657 734.011 602.984 731.34C606.31 728.669 608.995 725.286 610.842 721.44C612.689 717.594 613.65 713.383 613.655 709.117C613.655 708.494 613.655 707.871 613.592 707.247C614.4 704.552 614.803 701.751 614.789 698.937V698.937Z" fill="#03989E"/>
<path opacity="0.1" d="M614.297 704.224C605.585 702.572 596.652 702.458 587.902 703.887C577.996 705.526 567.872 709.13 558.184 706.499C552.499 704.953 547.587 701.375 542.032 699.386C536.673 697.516 530.9 697.171 525.356 698.389C523.244 703.442 522.631 708.998 523.591 714.39C524.551 719.783 527.043 724.786 530.77 728.8C534.497 732.814 539.301 735.67 544.608 737.028C549.915 738.385 555.5 738.185 560.697 736.453C566.563 738.61 572.973 738.787 578.95 736.958C583.116 737.875 587.435 737.846 591.589 736.874C595.743 735.902 599.626 734.01 602.952 731.339C606.279 728.668 608.964 725.286 610.811 721.44C612.658 717.594 613.619 713.383 613.623 709.117C613.623 708.494 613.623 707.87 613.561 707.247C613.862 706.254 614.107 705.244 614.297 704.224Z" fill="black"/>
</g>
<defs>
<clipPath id="clip0">
<rect width="682" height="473.784" fill="white" transform="translate(82 387)"/>
</clipPath>
</defs>
</svg>
